<?xml version="1.0" encoding="UTF-8"?>
<svg version="1.1" xmlns="http://www.w3.org/2000/svg" width="1656" height="374">
<path d="M0 0 C546.48 0 1092.96 0 1656 0 C1656 123.42 1656 246.84 1656 374 C1109.52 374 563.04 374 0 374 C0 250.58 0 127.16 0 0 Z " fill="#212429" transform="translate(0,0)"/>
<path d="M0 0 C9.9 0 19.8 0 30 0 C30 20.79 30 41.58 30 63 C33.39677151 61.86774283 34.02230115 60.98607076 36.1875 58.25 C43.85748706 49.33623125 52.93781408 46.65176032 64.52734375 45.71484375 C78.85187369 45.35079492 90.6404435 48.88169778 101.25 58.6875 C115.34615508 73.6362451 117.64250752 94.48772911 117.25390625 114.0859375 C116.56642511 131.87753474 110.63008159 149.51999815 97.5546875 161.95703125 C86.11819632 171.1027268 73.26168176 173.1503735 59 172 C49.75534258 170.24229137 40.09463098 165.52528518 34.37890625 157.8125 C33.040975 155.70057189 33.040975 155.70057189 30 155 C30 159.62 30 164.24 30 169 C20.1 169 10.2 169 0 169 C0 113.23 0 57.46 0 0 Z " fill="#FDFDFD" transform="translate(658,71)"/>
<path d="M0 0 C10.79214756 9.76929411 16.6178482 23.98180611 17.83203125 38.265625 C18.0172269 42.37061693 18.06233674 46.46935862 18.08203125 50.578125 C18.10265625 51.64224609 18.12328125 52.70636719 18.14453125 53.80273438 C18.18009257 61.08835946 17.12338671 67.3585003 14.83203125 74.265625 C14.39697266 75.58240234 14.39697266 75.58240234 13.953125 76.92578125 C9.60530012 89.50716823 0.67512875 99.36447742 -10.98046875 105.515625 C-28.80602862 113.96642772 -47.65964065 114.328698 -66.16796875 108.265625 C-78.53899944 103.69372236 -89.15982693 93.59663571 -94.859375 81.75 C-102.10097068 65.03944988 -103.31136417 47.01186575 -99.16796875 29.265625 C-98.97332031 28.41871094 -98.77867187 27.57179687 -98.578125 26.69921875 C-94.8095784 12.45009877 -86.52746112 1.26672487 -73.88671875 -6.234375 C-50.33987488 -19.22573714 -20.91603291 -16.73282633 0 0 Z " fill="#FCFCFC" transform="translate(344.16796875,130.734375)"/>
<path d="M0 0 C1.39465956 1.18558811 2.77090812 2.39328184 4.125 3.625 C4.75019531 4.17027344 5.37539063 4.71554688 6.01953125 5.27734375 C16.99987875 15.44433217 21.94512301 29.27035384 22.5390625 43.94140625 C22.58651505 46.60856656 22.61922442 49.27048254 22.625 51.9375 C22.63442627 53.85030762 22.63442627 53.85030762 22.64404297 55.80175781 C22.54040596 63.52724261 21.60788705 70.30844017 19.125 77.625 C18.76019531 78.72972656 18.39539063 79.83445312 18.01953125 80.97265625 C12.73969671 94.21989454 3.50523746 104.57079816 -9.625 110.4375 C-28.04097623 117.39047062 -46.77393207 117.89013411 -64.97265625 110.33984375 C-79.90133314 102.80201674 -88.31019812 91.01252035 -93.875 75.625 C-99.74833682 57.43042398 -98.21346921 36.34474193 -90.0625 19.125 C-82.55532762 5.45522343 -71.87803793 -3.85187197 -56.80078125 -8.27734375 C-38.24113868 -12.86963843 -15.74771087 -11.91791043 0 0 Z " fill="#FCFCFD" transform="translate(892.875,127.375)"/>
<path d="M0 0 C4.5895203 -0.22340401 9.17584819 -0.38617929 13.76953125 -0.49438477 C15.32966242 -0.5395005 16.88941597 -0.60081719 18.44824219 -0.67895508 C31.2402832 -1.30385363 31.2402832 -1.30385363 35.12329102 1.57324219 C36.75334438 3.96168316 37.84967335 6.34711667 39 9 C40.21532314 11.12224279 41.44980559 13.23358368 42.69921875 15.3359375 C43.68875558 17.07773433 44.67821145 18.81958174 45.66345215 20.56381226 C46.70655824 22.40870746 47.75533168 24.2502748 48.80566406 26.09106445 C52.01460318 31.71849231 55.20354947 37.3555365 58.34765625 43.01953125 C58.84370361 43.9027002 59.33975098 44.78586914 59.85083008 45.69580078 C60.76121754 47.31705613 61.66138195 48.94410893 62.54956055 50.57763672 C64.55056036 54.51107906 64.55056036 54.51107906 68.13964844 56.7043457 C68.75356445 56.80191162 69.36748047 56.89947754 70 57 C70.25652344 56.13503906 70.51304688 55.27007812 70.77734375 54.37890625 C72.04324189 50.88049764 73.60090856 48.09677544 75.5625 44.9375 C76.36121933 43.63524398 77.15789634 42.3317343 77.953125 41.02734375 C78.41783203 40.26534668 78.88253906 39.50334961 79.36132812 38.71826172 C82.51060848 33.49417241 85.58374855 28.22487388 88.66500854 22.96047974 C89.79547564 21.02908598 90.92706767 19.09835498 92.05883789 17.16772461 C95.40170946 11.46106383 98.71854796 5.74254107 102 0 C112.56 0 123.12 0 134 0 C132.57181199 4.28456404 131.48701477 7.1910008 129.26953125 10.921875 C128.72151855 11.85161133 128.17350586 12.78134766 127.60888672 13.73925781 C126.71967529 15.2295752 126.71967529 15.2295752 125.8125 16.75 C124.53963244 18.90581789 123.26752309 21.06208359 121.99609375 23.21875 C121.33722168 24.33378906 120.67834961 25.44882813 119.99951172 26.59765625 C116.11485154 33.20774469 112.31268363 39.86568781 108.50317383 46.51928711 C105.52631461 51.69832466 102.507671 56.8380219 99.3515625 61.91015625 C98.78518066 62.82571289 98.21879883 63.74126953 97.63525391 64.68457031 C96.57489424 66.388618 95.50232941 68.08515468 94.41552734 69.77246094 C93.94840332 70.52430664 93.4812793 71.27615234 93 72.05078125 C92.5875 72.69700439 92.175 73.34322754 91.75 74.0090332 C90.71876528 76.74657198 91.13621021 78.22327026 92 81 C93.2455272 83.60634704 93.2455272 83.60634704 94.8515625 86.26171875 C95.44775391 87.28458984 96.04394531 88.30746094 96.65820312 89.36132812 C97.30724609 90.45896484 97.95628906 91.55660156 98.625 92.6875 C99.30478918 93.84916922 99.98381248 95.01128693 100.66210938 96.17382812 C102.07158303 98.58817446 103.48432987 101.00055922 104.89941406 103.41162109 C108.13055422 108.92318414 111.3129241 114.46288366 114.5 120 C118.05960585 126.17578144 121.62151694 132.35018382 125.19747925 138.51651001 C126.60588062 140.94551977 128.01272093 143.37543188 129.41943359 145.80541992 C130.42132206 147.53457851 131.42548641 149.2624178 132.4296875 150.99023438 C133.02910156 152.02599609 133.62851563 153.06175781 134.24609375 154.12890625 C134.77904053 155.04744385 135.3119873 155.96598145 135.86108398 156.91235352 C137 159 137 159 137 160 C125.78 160 114.56 160 103 160 C100.64875 155.875 98.2975 151.75 95.875 147.5 C89.84507287 136.93347787 83.76470536 126.39896616 77.60693359 115.90625 C77.07277832 114.99488281 76.53862305 114.08351563 75.98828125 113.14453125 C75.2295874 111.85409912 75.2295874 111.85409912 74.45556641 110.53759766 C72.59957129 107.30190272 70.86655502 104.00546644 69.16479492 100.6862793 C68.02450527 98.67436649 68.02450527 98.67436649 65 98 C64.60300903 99.06118042 64.60300903 99.06118042 64.19799805 100.14379883 C62.9377666 103.14837346 61.45616691 105.87500798 59.83203125 108.69921875 C59.19281738 109.81433838 58.55360352 110.92945801 57.89501953 112.07836914 C57.20094934 113.28147218 56.50677374 114.48451441 55.8125 115.6875 C55.09984447 116.92750752 54.38744557 118.16766256 53.67529297 119.40795898 C51.82542619 122.6277611 49.97146717 125.84518839 48.11663818 129.06213379 C46.65425349 131.60002468 45.19485621 134.13962664 43.73558044 136.67930603 C42.03343608 139.64116712 40.32926808 142.60186032 38.625 145.5625 C37.98925049 146.66746826 37.35350098 147.77243652 36.69848633 148.91088867 C36.10962646 149.93158447 35.5207666 150.95228027 34.9140625 152.00390625 C34.3979541 152.89924072 33.8818457 153.7945752 33.35009766 154.71704102 C32.28866432 156.51188064 31.15666497 158.26500255 30 160 C27.51659097 160.26727014 25.28527932 160.34866334 22.8046875 160.29296875 C22.09724396 160.28872391 21.38980042 160.28447906 20.66091919 160.28010559 C18.39856095 160.26329547 16.13708952 160.22564128 13.875 160.1875 C12.34246077 160.17245607 10.8099076 160.15876716 9.27734375 160.14648438 C5.51788682 160.11338462 1.75909382 160.06158825 -2 160 C-0.7423893 155.89102713 0.77976192 152.34593014 2.94921875 148.640625 C3.54234863 147.6206543 4.13547852 146.60068359 4.74658203 145.54980469 C5.38708496 144.46086914 6.02758789 143.37193359 6.6875 142.25 C7.36108789 141.09571212 8.03409173 139.94108324 8.70654297 138.78613281 C10.10443802 136.38609495 11.50483648 133.98754312 12.90673828 131.58984375 C14.90874479 128.1615999 16.89231308 124.72296019 18.87109375 121.28125 C19.49411377 120.19779297 20.11713379 119.11433594 20.7590332 117.99804688 C21.99963074 115.83856635 23.23905812 113.67841315 24.47729492 111.51757812 C27.53767283 106.19546378 30.64613435 100.91417603 33.8671875 95.6875 C34.47868652 94.6862207 35.09018555 93.68494141 35.72021484 92.65332031 C36.87546032 90.76879641 38.04433285 88.89253357 39.22900391 87.02636719 C39.99736572 85.76808105 39.99736572 85.76808105 40.78125 84.484375 C41.23564453 83.75959961 41.69003906 83.03482422 42.15820312 82.28808594 C43.3171266 79.138019 42.8594884 77.22031271 42 74 C40.78952533 71.3091252 40.78952533 71.3091252 39.18359375 68.67578125 C38.59223633 67.6607251 38.00087891 66.64566895 37.39160156 65.59985352 C36.42432129 63.97261353 36.42432129 63.97261353 35.4375 62.3125 C34.77073242 61.17417725 34.10396484 60.03585449 33.41699219 58.86303711 C31.64700626 55.84281807 29.86522793 52.82975226 28.07904053 49.8190918 C27.01818179 48.03065163 25.95920614 46.24111106 24.90087891 44.45117188 C21.52822504 38.7478779 18.14853203 33.0487816 14.765625 27.3515625 C11.32740997 21.5563652 7.89832001 15.75619405 4.5 9.9375 C3.80535645 8.75909546 3.80535645 8.75909546 3.09667969 7.55688477 C0 2.23182665 0 2.23182665 0 0 Z " fill="#38DE78" transform="translate(1434,80)"/>
<path d="M0 0 C6.26111699 5.49386967 13.68158281 14.46368997 15.0625 22.9375 C9.75154918 26.8032142 4.34411171 30.49230357 -1.25 33.9375 C-2.21550781 34.535625 -3.18101562 35.13375 -4.17578125 35.75 C-6.9375 36.9375 -6.9375 36.9375 -9.64453125 36.8828125 C-12.56360479 35.67937844 -13.03032156 34.65642962 -14.3125 31.8125 C-18.64228841 23.4451175 -23.9713364 18.94559566 -32.94140625 15.82421875 C-43.92460073 12.99688983 -57.32483925 13.22932804 -67.49609375 18.39453125 C-79.2899315 25.84823671 -84.6615946 35.54828663 -87.9375 48.9375 C-91.85319335 66.57108593 -90.58500074 90.37610161 -81.65625 106.3515625 C-75.94091167 114.9505488 -68.6039189 119.96070438 -58.57421875 122.546875 C-46.18562235 124.38222261 -33.10565369 123.4474096 -22.5 116.25 C-15.47929459 110.35260746 -11.9447027 102.41073585 -8.9375 93.9375 C-2.65941501 94.34421979 2.10192782 97.45164528 7.4375 100.5 C8.36433594 101.02013672 9.29117188 101.54027344 10.24609375 102.07617188 C12.52284654 103.35537834 14.79463523 104.64262238 17.0625 105.9375 C12.3418448 121.98027572 4.75599385 135.25304522 -10.2109375 143.59375 C-29.37897557 153.04046217 -50.38059815 154.77155375 -70.9375 148.9375 C-71.98550781 148.64746094 -73.03351563 148.35742188 -74.11328125 148.05859375 C-89.91050406 143.26121605 -103.81494237 132.42864395 -111.9375 117.9375 C-121.20158635 99.4990521 -123.36946356 81.28092664 -122.9375 60.9375 C-122.92074219 59.94105469 -122.90398437 58.94460937 -122.88671875 57.91796875 C-121.86020662 36.94779235 -113.4452337 17.63665696 -98.125 3.25 C-71.926428 -19.36888724 -27.84878032 -20.79943676 0 0 Z " fill="#FCFCFC" transform="translate(209.9375,91.0625)"/>
<path d="M0 0 C9.09762153 8.14089269 14.34457486 20.45488224 15.04052734 32.54223633 C15.12284739 36.11916685 15.12846443 39.68788006 15.10546875 43.265625 C15.11707031 45.11124023 15.11707031 45.11124023 15.12890625 46.99414062 C15.12632813 48.16525391 15.12375 49.33636719 15.12109375 50.54296875 C15.11883789 51.60636475 15.11658203 52.66976074 15.11425781 53.76538086 C14.85546875 56.328125 14.85546875 56.328125 12.85546875 58.328125 C10.35584629 58.5158951 7.96802678 58.58006571 5.46826172 58.55517578 C4.70719116 58.55546783 3.94612061 58.55575989 3.1619873 58.55606079 C0.64042859 58.55466481 -1.8808365 58.53909118 -4.40234375 58.5234375 C-6.14826292 58.51970832 -7.89418419 58.5168609 -9.6401062 58.51486206 C-14.24002845 58.50721811 -18.83982482 58.48756313 -23.43969727 58.4654541 C-28.13165585 58.44501204 -32.82363474 58.43586386 -37.515625 58.42578125 C-46.72531579 58.40431792 -55.93491306 58.37017283 -65.14453125 58.328125 C-64.8376954 60.09701187 -64.52677138 61.86518994 -64.21411133 63.63305664 C-63.95504753 65.11014854 -63.95504753 65.11014854 -63.69075012 66.61708069 C-62.52903136 72.38303129 -59.93206037 77.3873791 -55.95703125 81.703125 C-46.12443546 87.38418034 -36.42703171 89.3395894 -25.13671875 86.59765625 C-17.4938726 83.80288415 -13.37142674 79.05984745 -9.14453125 72.328125 C-5.54389059 72.88753548 -3.02067274 73.77559421 0.02734375 75.76171875 C1.14689453 76.4877832 1.14689453 76.4877832 2.2890625 77.22851562 C3.05347656 77.73576172 3.81789063 78.24300781 4.60546875 78.765625 C5.38535156 79.26900391 6.16523437 79.77238281 6.96875 80.29101562 C12.71973729 84.05666209 12.71973729 84.05666209 13.85546875 86.328125 C8.6843772 97.24902232 0.01204611 105.79569042 -11.1796875 110.33203125 C-29.00587485 116.32106653 -47.98324005 116.1434718 -65.4453125 108.97265625 C-71.39570843 105.9028116 -76.40631414 102.03609817 -81.14453125 97.328125 C-81.75039062 96.75707031 -82.35625 96.18601562 -82.98046875 95.59765625 C-94.35626561 83.94864156 -97.61078608 66.32954162 -97.43237305 50.59033203 C-96.92599962 32.86524474 -92.52527346 16.47974361 -80.14453125 3.328125 C-58.0359702 -15.78441609 -23.39884416 -18.24172186 0 0 Z " fill="#FCFCFC" transform="translate(1351.14453125,128.671875)"/>
<path d="M0 0 C7.99997023 6.59620187 11.70226436 14.31371248 13.6328125 24.39453125 C13.98200991 28.7061067 14.05371516 32.99355552 14.04350281 37.31840515 C14.03895602 39.41231797 14.05320706 41.50541596 14.07189941 43.59924316 C14.11451958 48.78670331 14.12597262 53.97413841 14.13812256 59.16174316 C14.14964613 63.5742018 14.17314275 67.98627673 14.21281433 72.39857483 C14.22636903 74.45887425 14.22222118 76.51865315 14.21740723 78.57897949 C14.22751831 79.82457642 14.23762939 81.07017334 14.24804688 82.35351562 C14.25010132 83.45062866 14.25215576 84.5477417 14.25427246 85.67810059 C14.41488809 88.40757349 14.41488809 88.40757349 16.00183105 90.25378418 C18.31758884 91.87348005 20.03008207 91.69074153 22.8203125 91.58203125 C23.72136719 91.55496094 24.62242187 91.52789062 25.55078125 91.5 C26.23785156 91.46519531 26.92492187 91.43039063 27.6328125 91.39453125 C27.97082402 93.93565357 28.30334629 96.47729871 28.6328125 99.01953125 C28.72820312 99.73238281 28.82359375 100.44523437 28.921875 101.1796875 C29.44887351 105.28274734 29.73748234 109.24698867 29.6328125 113.39453125 C23.67614069 115.99380622 18.43322317 116.7194143 12.0078125 116.76953125 C10.93382202 116.78983398 10.93382202 116.78983398 9.83813477 116.81054688 C1.97325259 116.74531574 -3.68250336 113.95001803 -9.3671875 108.39453125 C-11.34676987 105.0952273 -12.3671875 103.2437981 -12.3671875 99.39453125 C-15.39871128 100.47721832 -16.37356136 101.40420194 -18.1796875 104.14453125 C-23.61797301 112.22426973 -30.98791842 116.01410938 -40.3671875 118.39453125 C-53.46299228 119.82561919 -65.84297537 117.61080212 -76.3671875 109.39453125 C-85.52233666 99.71788625 -86.86340894 89.59781778 -86.63671875 76.859375 C-86.31288282 69.21333751 -83.97174702 63.82335372 -78.8671875 58.14453125 C-67.65945235 47.96126915 -51.56742757 44.47189778 -36.9296875 42.39453125 C-30.78059865 41.46653053 -24.65865561 39.72970741 -19.3671875 36.39453125 C-17.2114254 32.35971681 -16.79893167 28.94057785 -17.3671875 24.39453125 C-19.90855909 21.2349882 -21.51341409 19.67912239 -25.3671875 18.39453125 C-39.08642331 16.99767646 -50.21288579 18.56654948 -61.4296875 27.01953125 C-63.41928294 28.65714984 -65.2015034 30.19813287 -66.86328125 32.16796875 C-68.3671875 33.39453125 -68.3671875 33.39453125 -70.28417969 33.20092773 C-74.26743366 31.65888743 -75.97804836 27.56628981 -78.1796875 24.08203125 C-78.69466797 23.30923828 -79.20964844 22.53644531 -79.74023438 21.74023438 C-80.22169922 20.99064453 -80.70316406 20.24105469 -81.19921875 19.46875 C-81.63983643 18.78385498 -82.0804541 18.09895996 -82.53442383 17.39331055 C-83.3671875 15.39453125 -83.3671875 15.39453125 -83.15795898 13.2878418 C-81.8595703 10.17916498 -79.24272014 8.48255687 -76.6171875 6.51953125 C-76.03590088 6.08116943 -75.45461426 5.64280762 -74.85571289 5.19116211 C-54.9128021 -9.37454903 -21.49710203 -14.57971771 0 0 Z " fill="#FCFCFC" transform="translate(608.3671875,124.60546875)"/>
<path d="M0 0 C0.8971875 0.01933594 1.794375 0.03867188 2.71875 0.05859375 C12.80164337 0.66137542 22.29977751 5.55184569 29 13 C36.76093906 22.38626661 37.43839276 34.34398131 37.41069031 46.06016922 C37.40613619 48.15388636 37.42041287 50.24679178 37.43908691 52.34042358 C37.48166188 57.52496455 37.49317741 62.7094796 37.50531006 67.89416504 C37.51682225 72.30891165 37.5402742 76.72327368 37.58000183 81.13785934 C37.59357429 83.19986834 37.58940636 85.26135869 37.58459473 87.32339478 C37.59470581 88.56583954 37.60481689 89.8082843 37.61523438 91.08837891 C37.61728882 92.18469635 37.61934326 93.28101379 37.62145996 94.41055298 C37.74637817 95.2650705 37.87129639 96.11958801 38 97 C41.31371 99.20914 42.3446021 99.22481553 46.1875 99.125 C47.08855469 99.10695313 47.98960938 99.08890625 48.91796875 99.0703125 C49.60503906 99.04710937 50.29210938 99.02390625 51 99 C51.33695862 101.72876308 51.66968429 104.45793163 52 107.1875 C52.09539062 107.95642578 52.19078125 108.72535156 52.2890625 109.51757812 C52.75192894 113.36928811 53.12467468 117.11170851 53 121 C43.73724597 124.96975173 32.74076485 125.58954166 22.9375 123 C18.04393899 121.03132603 14.91535599 117.2853227 12 113 C11.29713697 111.34827188 10.61344757 109.68698082 10 108 C8.515 107.505 8.515 107.505 7 107 C6.79375 107.680625 6.5875 108.36125 6.375 109.0625 C2.69126501 116.93229747 -2.98112498 120.9587674 -11 124 C-22.69242418 127.53534715 -35.81644638 127.25914145 -46.76953125 121.55859375 C-55.17714639 116.12578697 -60.36366787 108.62035497 -63 99 C-63.44594249 95.69701387 -63.52502025 92.45522723 -63.5 89.125 C-63.49427979 88.24239502 -63.48855957 87.35979004 -63.48266602 86.45043945 C-63.29604375 79.65097977 -62.2550432 74.47700433 -58 69 C-57.53851562 68.37351562 -57.07703125 67.74703125 -56.6015625 67.1015625 C-46.62725558 55.5070636 -30.11513784 52.87766024 -15.90234375 50.234375 C-5.47010735 48.46974417 -5.47010735 48.46974417 4 44 C6.51380481 40.27956889 6.54985778 36.39886226 6 32 C2.6622281 27.44849286 -0.51298037 25.97350348 -6 25 C-19.84444114 23.57837492 -31.15267064 29.23461516 -42.0625 37.25 C-44.08196593 38.86060215 -44.08196593 38.86060215 -45 41 C-47.52603852 40.62550895 -48.72643554 40.29775693 -50.47973633 38.3894043 C-51.93748395 36.16317445 -53.3909979 33.93713337 -54.8125 31.6875 C-55.32748047 30.91470703 -55.84246094 30.14191406 -56.37304688 29.34570312 C-56.85451172 28.59611328 -57.33597656 27.84652344 -57.83203125 27.07421875 C-58.27264893 26.38932373 -58.7132666 25.70442871 -59.16723633 24.9987793 C-60.20008686 22.51975634 -59.99549943 21.46233213 -59 19 C-43.5169192 2.44595511 -21.58865898 -0.83844843 0 0 Z " fill="#FCFCFC" transform="translate(1094,117)"/>
<path d="M0 0 C0 9.24 0 18.48 0 28 C11.22 28 22.44 28 34 28 C34 35.92 34 43.84 34 52 C22.78 52 11.56 52 0 52 C0.06768153 59.95608065 0.13815974 67.91127305 0.2355423 75.86690521 C0.28009599 79.5721376 0.31955281 83.2772597 0.34643555 86.98266602 C0.37255719 90.55552792 0.4130207 94.12797253 0.46318626 97.70057487 C0.47979545 99.05957767 0.49134664 100.41865255 0.49761391 101.77774239 C0.46404226 111.81786988 0.46404226 111.81786988 4 121 C7.70236031 124.47797483 11.58482202 124.43135495 16.4375 124.30859375 C18.97981337 124.00243101 20.95262895 123.40737125 23.3125 122.4375 C27 121 27 121 29.5234375 120.89453125 C32.45541675 122.20328539 32.61823212 122.76999643 33.80078125 125.640625 C34.32605721 127.16990944 34.8291787 128.70694257 35.3125 130.25 C35.57611328 131.01441406 35.83972656 131.77882812 36.11132812 132.56640625 C37.40866054 136.46851257 38.35809147 139.83614573 38 144 C36.43880578 144.79423861 34.87598036 145.58527123 33.3125 146.375 C32.44238281 146.81585938 31.57226562 147.25671875 30.67578125 147.7109375 C19.1358408 153.27032487 5.25787129 153.84322697 -7 150 C-15.65208771 146.85138092 -21.93424652 141.73003924 -26.3125 133.546875 C-30.84147066 122.95707597 -31.28427437 112.40961123 -31.1953125 101.0234375 C-31.19157374 99.60283611 -31.18873086 98.18223211 -31.18673706 96.7616272 C-31.17916839 93.05613858 -31.1595797 89.35081139 -31.1373291 85.64538574 C-31.11672327 81.85085228 -31.10770411 78.05629226 -31.09765625 74.26171875 C-31.07632603 66.84106437 -31.04120077 59.42057554 -31 52 C-36.94 52 -42.88 52 -49 52 C-49 44.08 -49 36.16 -49 28 C-43.06 28 -37.12 28 -31 28 C-31 20.08 -31 12.16 -31 4 C-27.184375 3.34 -23.36875 2.68 -19.4375 2 C-17.65363892 1.68675781 -17.65363892 1.68675781 -15.83374023 1.3671875 C-14.39816772 1.12355469 -14.39816772 1.12355469 -12.93359375 0.875 C-11.96478271 0.70742187 -10.99597168 0.53984375 -9.99780273 0.3671875 C-7 0 -7 0 0 0 Z " fill="#FCFCFC" transform="translate(1202,91)"/>
<path d="M0 0 C10.23 0 20.46 0 31 0 C31.00410889 4.24512451 31.00821777 8.49024902 31.01245117 12.86401367 C31.02963155 26.87387121 31.07385206 40.88354632 31.13209057 54.89329052 C31.16674556 63.3892574 31.19209675 71.88506194 31.19555664 80.38110352 C31.19859584 87.78617287 31.21908016 95.19095316 31.26052457 102.59591085 C31.28186058 106.51696624 31.29445231 110.43761062 31.28615379 114.35872459 C31.27861712 118.05009765 31.29441919 121.74063768 31.32806015 125.43185806 C31.34022417 127.43115864 31.32769852 129.43056174 31.31443787 131.42985535 C31.14521596 138.43671276 31.14521596 138.43671276 34.37617493 144.31611633 C37.3445311 146.2211086 38.76972655 146.52091949 42.25 146.25 C43.83217686 146.14701807 45.41556155 146.05868291 47 146 C48.67647437 147.67647437 48.34638077 149.82584536 48.53515625 152.12890625 C48.66567383 153.68061523 48.66567383 153.68061523 48.79882812 155.26367188 C48.9293457 156.8965918 48.9293457 156.8965918 49.0625 158.5625 C49.15337891 159.65498047 49.24425781 160.74746094 49.33789062 161.87304688 C49.56262811 164.58172492 49.78314089 167.29068166 50 170 C40.08546817 174.13652653 29.47866005 174.66738924 19.21484375 171.046875 C10.72684269 167.03490977 5.71688676 160.94755274 1.83203125 152.57421875 C-0.70897741 144.7126004 -0.13610237 136.21414042 -0.11352539 128.05664062 C-0.11324292 126.65646364 -0.11340243 125.25628651 -0.1139679 123.85610962 C-0.11425351 120.07569905 -0.10839493 116.29532053 -0.10139394 112.51491737 C-0.09512112 108.55645538 -0.0945535 104.59799256 -0.09336853 100.63952637 C-0.09026677 93.15285026 -0.082069 85.66618883 -0.07201904 78.17951918 C-0.06082197 69.65229116 -0.05533841 61.12506241 -0.05032361 52.59782887 C-0.03988538 35.06520924 -0.02155431 17.53260973 0 0 Z " fill="#FAFAFA" transform="translate(459,70)"/>
<path d="M0 0 C9.9 0 19.8 0 30 0 C30.01458252 4.14900879 30.02916504 8.29801758 30.04418945 12.57275391 C30.09449526 26.27125453 30.16093281 39.9696369 30.23571491 53.66802406 C30.28066658 61.97447058 30.32008268 70.28087428 30.34643555 78.58740234 C30.36942074 85.82798966 30.40282455 93.06844142 30.44870156 100.30892122 C30.47262684 104.142162 30.49136013 107.97526858 30.49761391 111.80858231 C30.50366798 115.41852994 30.52367907 119.02813425 30.55427551 122.63795471 C30.5672267 124.59053553 30.56548668 126.54319657 30.5632782 128.49581909 C30.56104578 136.74725016 30.56104578 136.74725016 34 144 C36.64458379 145.32229189 38.67761301 145.09677194 41.625 145.0625 C43.12933594 145.04896484 43.12933594 145.04896484 44.6640625 145.03515625 C45.43492187 145.02355469 46.20578125 145.01195312 47 145 C48.18396883 153.02350304 49.28545428 160.86455314 49 169 C39.22714269 173.59899168 28.98440811 172.93507696 18.7265625 170.0390625 C11.8197874 167.40696769 6.36945713 162.57589927 3 156 C-0.036791 147.18306288 -0.41710297 138.66646934 -0.34057617 129.41894531 C-0.33972775 127.99847431 -0.34020923 126.57800199 -0.34190369 125.15753174 C-0.34275668 121.3400639 -0.32524532 117.52288478 -0.30418181 113.70548344 C-0.28529745 109.70168118 -0.28365538 105.69787069 -0.28010559 101.69403076 C-0.27081939 94.12951666 -0.24625254 86.56513422 -0.21605712 79.00067782 C-0.18240579 70.38147697 -0.16600025 61.7622695 -0.15097082 53.1430192 C-0.11969948 35.42858989 -0.06473084 17.71434082 0 0 Z " fill="#FEFEFE" transform="translate(390,71)"/>
<path d="M0 0 C-1.07047894 9.21871277 -2.49774295 18.04191976 -5 27 C-6.5778125 26.7525 -6.5778125 26.7525 -8.1875 26.5 C-18.51867561 25.29317241 -27.15428257 24.85761595 -36 31 C-42.78612565 37.07179663 -44.34020433 47.34469197 -45 56 C-45.18853968 60.88554674 -45.2553847 65.7716766 -45.31640625 70.66015625 C-45.3370205 72.05977428 -45.35801799 73.45938671 -45.37937927 74.85899353 C-45.43413897 78.51341165 -45.48374822 82.16788157 -45.53222656 85.8223877 C-45.58278189 89.56327832 -45.63824169 93.30409615 -45.69335938 97.04492188 C-45.80083236 104.36322408 -45.90021292 111.68157285 -46 119 C-55.9 119 -65.8 119 -76 119 C-76 79.07 -76 39.14 -76 -2 C-66.43 -2 -56.86 -2 -47 -2 C-47 3.94 -47 9.88 -47 16 C-43.40540078 14.80180026 -43.13392304 13.97177544 -41.25 10.8125 C-37.28275689 4.66620464 -32.64357871 -0.18726324 -25.5 -2.53125 C-16.76783999 -4.16853 -8.01326396 -3.92486398 0 0 Z " fill="#FDFDFE" transform="translate(1020,121)"/>
<path d="M0 0 C8.10446027 5.20486448 11.1134665 11.42364335 13.22265625 20.62109375 C15.16961531 33.38291296 15.18524876 48.94120212 8.234375 60.16015625 C3.99875139 65.8076544 -1.27533346 69.67950829 -8.2421875 71.12890625 C-17.74458241 72.00412683 -25.86298383 71.05039152 -33.41796875 64.96484375 C-42.00104578 56.32662918 -42.604634 45.36536163 -42.6171875 33.87890625 C-42.64167969 32.71488281 -42.66617187 31.55085938 -42.69140625 30.3515625 C-42.72697966 19.7625432 -40.7255404 10.54495522 -33.12890625 2.7890625 C-24.34800583 -4.93740267 -10.25693056 -5.59646211 0 0 Z " fill="#22252A" transform="translate(317.2421875,145.87109375)"/>
<path d="M0 0 C6.48850063 3.48773361 10.49995813 8.08681866 12.92578125 15.03515625 C14.9530799 21.82371059 15.11870838 28.69114273 15.17578125 35.72265625 C15.1897998 36.91628784 15.1897998 36.91628784 15.20410156 38.1340332 C15.15529271 47.17024059 13.25393115 57.06259292 7.16796875 64.0546875 C0.36615077 70.38971405 -6.00443347 72.60708024 -15.26171875 72.32421875 C-21.90440655 71.64149806 -28.43382429 70.06225025 -33.07421875 65.03515625 C-39.5301763 55.77999906 -41.41116442 47.88792922 -41.32421875 36.72265625 C-41.33195313 35.74103516 -41.3396875 34.75941406 -41.34765625 33.74804688 C-41.32150349 23.86884238 -40.53367925 12.89311752 -33.46875 5.3125 C-24.12018759 -3.08676026 -11.76112446 -4.76203721 0 0 Z " fill="#22252A" transform="translate(869.07421875,144.96484375)"/>
<path d="M0 0 C6.6381547 3.55704893 11.05592539 9.30099939 13.4921875 16.34765625 C16.89366988 30.76470851 17.07877521 49.64711416 9.25 62.5625 C6.30544577 66.55189605 3.49582024 68.45644535 -1 70.5 C-1.77601563 70.85578125 -2.55203125 71.2115625 -3.3515625 71.578125 C-9.81644887 73.82843943 -17.86811028 73.40022144 -24.125 70.59765625 C-31.31150419 66.39055692 -35.49488588 61.42407151 -38 53.5 C-38.33644531 52.44619141 -38.33644531 52.44619141 -38.6796875 51.37109375 C-41.85179663 38.87819822 -41.6579474 23.14773923 -36 11.5 C-27.92445479 -0.66220126 -13.91383464 -5.46442987 0 0 Z " fill="#22252A" transform="translate(728,144.5)"/>
<path d="M0 0 C0.56034513 12.12524597 0.67935178 24.47069287 -8 34 C-14.5566979 38.98719751 -21.99350992 39.88821999 -30 39 C-33.91741533 37.70161424 -36.5606171 35.45064913 -39.4375 32.5 C-41.74905755 27.3221111 -41.7435095 22.5801538 -41 17 C-38.65716629 11.75205249 -35.13647072 9.28697854 -30 7 C-26.31193065 5.91228095 -22.58027748 5.13404861 -18.8125 4.375 C-16.85969091 3.97088234 -14.90781938 3.56220086 -12.95703125 3.1484375 C-11.67276245 2.88812744 -11.67276245 2.88812744 -10.36254883 2.62255859 C-7.98700565 2.08934435 -7.98700565 2.08934435 -5.94018555 0.92822266 C-4 0 -4 0 0 0 Z " fill="#25282D" transform="translate(593,181)"/>
<path d="M0 0 C0.117791 3.31219232 0.18777155 6.62383492 0.25 9.9375 C0.30027344 11.32678711 0.30027344 11.32678711 0.3515625 12.74414062 C0.4625959 20.65527053 -1.27856035 26.59820044 -6.25 32.8125 C-12.68103972 37.92809978 -17.83877561 39.69761883 -26.16015625 39.3828125 C-31.62421852 38.6462539 -34.57662817 36.45986854 -38.4375 32.5 C-40.74905755 27.3221111 -40.7435095 22.5801538 -40 17 C-37.65272889 11.74211272 -34.11274453 9.346491 -29 7 C-26.05620391 6.10445877 -23.08455742 5.50620785 -20.0625 4.9375 C-15.43435865 4.038565 -11.02408745 3.0948158 -6.62109375 1.37890625 C-3 0 -3 0 0 0 Z " fill="#24272C" transform="translate(1101,181)"/>
<path d="M0 0 C1.97758383 1.20391077 3.54021596 2.4223897 5.171875 4.05859375 C5.935 4.78046875 6.698125 5.50234375 7.484375 6.24609375 C11.12147635 12.30792933 12.171875 18.03223567 12.171875 25.05859375 C-4.658125 25.05859375 -21.488125 25.05859375 -38.828125 25.05859375 C-37.77521498 16.6353136 -36.13871121 9.76164767 -29.5 4.05859375 C-20.93137664 -1.69067612 -10.01291366 -3.33302789 0 0 Z " fill="#23262B" transform="translate(1324.828125,141.94140625)"/>
<path d="M0 0 C18 0 18 0 24 3 C26 5 26 5 26.375 8.875 C26.31541346 12.15225968 26.14649924 12.81687595 24 15.5 C23.01 16.2425 23.01 16.2425 22 17 C22.969375 17.763125 23.93875 18.52625 24.9375 19.3125 C27.42086332 21.26748815 27.9521672 21.85650159 29 25 C29.37935127 29.09699372 29.44928789 31.27793017 27.25 34.8125 C23.66048782 38.30230351 20.99699778 39.25606095 16.015625 39.1953125 C15.17290039 39.19031738 14.33017578 39.18532227 13.46191406 39.18017578 C11.8720166 39.15286377 11.8720166 39.15286377 10.25 39.125 C6.8675 39.08375 3.485 39.0425 0 39 C0 26.13 0 13.26 0 0 Z " fill="#ECECEC" transform="translate(282,298)"/>
<path d="M0 0 C1.65 0 3.3 0 5 0 C5.33 4.95 5.66 9.9 6 15 C7.65 13.68 9.3 12.36 11 11 C14.77566459 10.52804193 17.17600409 10.65507148 20.6875 12.125 C24.49876186 15.21521232 26.66588019 17.80037792 27.421875 22.77734375 C27.73716697 29.72252519 26.73898338 34.75839717 22 40 C19.56045342 41.21977329 17.84694151 41.20153813 15.125 41.25 C14.26132812 41.27578125 13.39765625 41.3015625 12.5078125 41.328125 C9.54975351 40.94108924 8.20798216 39.95124005 6 38 C5.67 38.99 5.34 39.98 5 41 C3.35 41 1.7 41 0 41 C0 27.47 0 13.94 0 0 Z " fill="#E8E8E9" transform="translate(588,296)"/>
<path d="M0 0 C1.65 0 3.3 0 5 0 C5 13.53 5 27.06 5 41 C3.35 41 1.7 41 0 41 C-0.33 40.01 -0.66 39.02 -1 38 C-1.55816406 38.4846875 -2.11632812 38.969375 -2.69140625 39.46875 C-6.56228865 42.03623883 -10.52107486 41.76947498 -15 41 C-19.22003165 38.01081091 -20.93873244 35.01690119 -22 30 C-22.7792188 23.44257408 -21.94638854 19.33295749 -18 14 C-15.05489222 11.46393496 -12.7311474 10.80095767 -8.9375 10.625 C-5 11 -5 11 -1 14 C-0.67 9.38 -0.34 4.76 0 0 Z " fill="#EAEBEB" transform="translate(427,296)"/>
<path d="M0 0 C1.32 0 2.64 0 4 0 C4 13.53 4 27.06 4 41 C2.68 41 1.36 41 0 41 C-0.33 40.01 -0.66 39.02 -1 38 C-1.55816406 38.48597656 -2.11632812 38.97195313 -2.69140625 39.47265625 C-6.55375408 42.02794898 -10.52785057 41.65958768 -15 41 C-18.64311175 38.87485148 -20.46279154 36.87615066 -22 33 C-22.78985629 26.76469216 -23.51801428 19.94690957 -19.5625 14.6875 C-16.41992684 11.74599195 -13.36664699 10.95307678 -9.12109375 10.78125 C-5.6843321 11.13568582 -3.40297891 12.59702109 -1 15 C-0.67 10.05 -0.34 5.1 0 0 Z " fill="#F6F6F6" transform="translate(254,296)"/>
<path d="M0 0 C17 0 17 0 24 3 C26.47967312 6.71950967 26.41836124 9.69436557 26 14 C24.86506738 17.49937557 23.0269812 18.98201253 20 21 C20.598125 21.639375 21.19625 22.27875 21.8125 22.9375 C25.35259327 27.89363058 27 32.91683822 27 39 C25.68 39 24.36 39 23 39 C22.66226562 38.01257813 22.32453125 37.02515625 21.9765625 36.0078125 C21.52634467 34.71343623 21.07580716 33.41917113 20.625 32.125 C20.40328125 31.47402344 20.1815625 30.82304687 19.953125 30.15234375 C18.93037374 27.23449455 18.21443349 25.21443349 16 23 C13.33757179 22.53709779 13.33757179 22.53709779 10.375 22.375 C7.714375 22.189375 7.714375 22.189375 5 22 C5 27.61 5 33.22 5 39 C3.35 39 1.7 39 0 39 C0 26.13 0 13.26 0 0 Z " fill="#EEEEEE" transform="translate(1160,298)"/>
<path d="M0 0 C3.61585252 2.41056835 5.01587459 3.86714331 6.8125 7.875 C7.50658081 13.44181137 8.14296801 19.61174784 5.0625 24.5625 C1.4625299 28.26246927 -1.43036461 29.1903063 -6.5625 29.3125 C-10.26601525 29.2383308 -12.77687226 29.03306846 -15.75 26.75 C-19.84441807 21.92068638 -20.66698561 17.30999799 -20.5 11.12109375 C-19.95361792 7.19397258 -18.60036057 5.04981654 -16.1875 1.875 C-10.86833783 -1.78931172 -6.0516031 -2.13585992 0 0 Z " fill="#282B30" transform="translate(764.1875,308.125)"/>
<path d="M0 0 C3.61585252 2.41056835 5.01587459 3.86714331 6.8125 7.875 C7.50658081 13.44181137 8.14296801 19.61174784 5.0625 24.5625 C1.4625299 28.26246927 -1.43036461 29.1903063 -6.5625 29.3125 C-10.26601525 29.2383308 -12.77687226 29.03306846 -15.75 26.75 C-19.84441807 21.92068638 -20.66698561 17.30999799 -20.5 11.12109375 C-19.95361792 7.19397258 -18.60036057 5.04981654 -16.1875 1.875 C-10.86833783 -1.78931172 -6.0516031 -2.13585992 0 0 Z " fill="#282B30" transform="translate(185.1875,308.125)"/>
<path d="M0 0 C3.61585252 2.41056835 5.01587459 3.86714331 6.8125 7.875 C7.50658081 13.44181137 8.14296801 19.61174784 5.0625 24.5625 C1.4625299 28.26246927 -1.43036461 29.1903063 -6.5625 29.3125 C-10.26601525 29.2383308 -12.77687226 29.03306846 -15.75 26.75 C-19.67694524 22.11821843 -20.61139249 17.76631092 -20.44140625 11.828125 C-19.78317402 6.76480012 -16.99687835 3.08916299 -13.1875 -0.125 C-8.49815463 -1.68811512 -4.66994475 -1.64821579 0 0 Z " fill="#EFF0F0" transform="translate(1294.1875,308.125)"/>
<path d="M0 0 C4.03843343 2.60254599 6.29289779 5.25369336 7.8125 9.8125 C8.27507887 16.75118309 7.34270802 21.62933508 2.875 27.25 C-2.00094365 29.73772635 -6.82945456 29.55461156 -12.1875 28.8125 C-15.91257976 26.72645533 -17.61990563 24.71797217 -19.1875 20.8125 C-19.83969956 14.94270395 -20.0140484 9.58804842 -17.5 4.1875 C-12.14936776 -1.30774392 -7.40023529 -2.7569504 0 0 Z " fill="#EFF0F0" transform="translate(968.1875,308.1875)"/>
<path d="M0 0 C3.12715288 2.0152763 4.75679306 3.71592879 6.8125 6.8125 C7.71093597 12.46486487 7.40483942 18.00430597 5.625 23.4375 C2.85164581 27.07155032 0.85565455 28.53176121 -3.74609375 29.1640625 C-8.2671838 29.39717162 -12.04084744 29.51961156 -15.75 26.6875 C-19.67694524 22.05571843 -20.61139249 17.70381092 -20.44140625 11.765625 C-19.78317402 6.70230012 -16.99687835 3.02666299 -13.1875 -0.1875 C-8.48227445 -1.75590852 -4.66101184 -1.73645539 0 0 Z " fill="#F0F0F0" transform="translate(641.1875,308.1875)"/>
<path d="M0 0 C3.61585252 2.41056835 5.01587459 3.86714331 6.8125 7.875 C7.50658081 13.44181137 8.14296801 19.61174784 5.0625 24.5625 C1.4625299 28.26246927 -1.43036461 29.1903063 -6.5625 29.3125 C-10.26601525 29.2383308 -12.77687226 29.03306846 -15.75 26.75 C-19.18868907 22.69411032 -20.02388981 19.67471204 -20.5 14.4375 C-20.04721796 9.27578473 -18.52992448 5.46912907 -15.1875 1.5 C-10.64293521 -2.19245889 -5.31151689 -1.87465302 0 0 Z " fill="#282B30" transform="translate(511.1875,308.125)"/>
<path d="M0 0 C3.14013437 2.02364215 4.75995849 3.6926369 6.8125 6.8125 C7.71689463 12.49821627 8.23266493 19.49275211 5.0625 24.5625 C1.39840776 28.22659224 -1.46968207 29.11599767 -6.625 29.1875 C-10.36227053 29.11773762 -11.94376553 28.95177684 -15.25 27.0625 C-19.79554345 21.78380438 -19.66629945 16.99365923 -19.57421875 10.1796875 C-19.02278801 5.37834108 -17.88618249 3.83869476 -14.1875 0.8125 C-9.83815452 -2.37702002 -4.85924172 -1.81030574 0 0 Z " fill="#26292E" transform="translate(1108.1875,308.1875)"/>
<path d="M0 0 C19.15702479 0 19.15702479 0 24.81640625 4.41796875 C27.15031959 7.53755589 27.20726113 11.21100741 27 15 C25.30606034 18.65890967 23.70535485 20.47098386 20.5 22.875 C15.26362191 24.55812153 10.48712633 24.18290421 5 24 C5 28.95 5 33.9 5 39 C3.35 39 1.7 39 0 39 C0 26.13 0 13.26 0 0 Z " fill="#EFEFEF" transform="translate(827,298)"/>
<path d="M0 0 C2 1.375 2 1.375 3 3 C3 3.66 3 4.32 3 5 C3.969375 4.154375 4.93875 3.30875 5.9375 2.4375 C9.76697324 -0.31566508 12.4181039 -0.32613931 16.984375 0.3125 C19.47317743 1.16139385 20.40441521 1.9019305 22 4 C22.34057617 6.72729492 22.34057617 6.72729492 22.29296875 9.98046875 C22.2784668 11.72553711 22.2784668 11.72553711 22.26367188 13.50585938 C22.23853516 14.72080078 22.21339844 15.93574219 22.1875 17.1875 C22.16719727 19.02731445 22.16719727 19.02731445 22.14648438 20.90429688 C22.11108741 23.93663664 22.0617076 26.96809996 22 30 C20.68 30 19.36 30 18 30 C17.67 22.08 17.34 14.16 17 6 C10.63139503 4.43971001 10.63139503 4.43971001 7.60058594 6.1184082 C5.53222127 8.54990401 5.46393052 9.93500501 5.390625 13.10546875 C5.35839844 14.08837891 5.32617188 15.07128906 5.29296875 16.08398438 C5.27169922 17.62022461 5.27169922 17.62022461 5.25 19.1875 C5.20552734 20.74114258 5.20552734 20.74114258 5.16015625 22.32617188 C5.08942755 24.88419312 5.03674743 27.44130158 5 30 C3.35 30 1.7 30 0 30 C-0.495 18.12 -0.495 18.12 -1 6 C-7.4047442 4.38483214 -7.4047442 4.38483214 -10.390625 6.265625 C-12.91791263 10.55956029 -12.6782643 14.85240842 -12.75 19.75 C-12.77964844 20.73355469 -12.80929687 21.71710938 -12.83984375 22.73046875 C-12.91042411 25.15372776 -12.96317701 27.57603154 -13 30 C-14.65 30 -16.3 30 -18 30 C-18 20.43 -18 10.86 -18 1 C-16.35 1 -14.7 1 -13 1 C-12.67 1.66 -12.34 2.32 -12 3 C-11.505 2.505 -11.01 2.01 -10.5 1.5 C-6.77354157 -0.73587506 -4.32088243 -0.41151261 0 0 Z " fill="#E7E7E7" transform="translate(1244,307)"/>
<path d="M0 0 C3 2 3 2 5 4 C5.680625 3.34 6.36125 2.68 7.0625 2 C10.74874118 -0.50978123 12.61738151 -0.62608836 17 0 C20.38939556 2.13679285 21.72582557 3.1774767 23 7 C23.08209792 8.77313851 23.10746294 10.54920775 23.09765625 12.32421875 C23.09443359 13.35224609 23.09121094 14.38027344 23.08789062 15.43945312 C23.07532227 17.04723633 23.07532227 17.04723633 23.0625 18.6875 C23.05798828 19.77095703 23.05347656 20.85441406 23.04882812 21.97070312 C23.03703743 24.64719085 23.02058063 27.32356777 23 30 C21.35 30 19.7 30 18 30 C17.67 22.08 17.34 14.16 17 6 C10.5952558 4.38483214 10.5952558 4.38483214 7.609375 6.265625 C5.08208737 10.55956029 5.3217357 14.85240842 5.25 19.75 C5.20552734 21.22533203 5.20552734 21.22533203 5.16015625 22.73046875 C5.08957589 25.15372776 5.03682299 27.57603154 5 30 C3.35 30 1.7 30 0 30 C-0.495 18.12 -0.495 18.12 -1 6 C-7.4047442 4.38483214 -7.4047442 4.38483214 -10.390625 6.265625 C-12.91791263 10.55956029 -12.6782643 14.85240842 -12.75 19.75 C-12.77964844 20.73355469 -12.80929687 21.71710938 -12.83984375 22.73046875 C-12.91042411 25.15372776 -12.96317701 27.57603154 -13 30 C-14.32 30 -15.64 30 -17 30 C-17 20.43 -17 10.86 -17 1 C-15.68 1 -14.36 1 -13 1 C-12.67 1.66 -12.34 2.32 -12 3 C-11.505 2.505 -11.01 2.01 -10.5 1.5 C-7.05923616 -0.56445831 -3.86811957 -0.72766606 0 0 Z " fill="#E3E4E5" transform="translate(1024,307)"/>
<path d="M0 0 C3.5386994 1.65139305 4.81070153 2.71605229 7 6 C7.22705078 8.17651367 7.22705078 8.17651367 7.1953125 10.66796875 C7.18886719 11.56064453 7.18242188 12.45332031 7.17578125 13.37304688 C7.15902344 14.30181641 7.14226562 15.23058594 7.125 16.1875 C7.11597656 17.12787109 7.10695313 18.06824219 7.09765625 19.03710938 C7.07409056 21.35832968 7.04119116 23.67903644 7 26 C8.32 26 9.64 26 11 26 C11 27.32 11 28.64 11 30 C5.46153846 30.36923077 5.46153846 30.36923077 3.125 28.5 C2.75375 28.005 2.3825 27.51 2 27 C1.60683594 27.48597656 1.21367188 27.97195313 0.80859375 28.47265625 C-2.11577871 30.94226669 -4.92711048 30.47437553 -8.61328125 30.33984375 C-11 30 -11 30 -13.625 28.5 C-15.51112608 25.07067986 -16.01435425 21.81874543 -15 18 C-12.21116347 14.44585484 -9.71084938 13.3018233 -5.375 12.25 C-4.41335938 12.00765625 -3.45171875 11.7653125 -2.4609375 11.515625 C0 11 0 11 2 11 C2 9.02 2 7.04 2 5 C-5.07840213 4.4970591 -5.07840213 4.4970591 -11 8 C-11.99 7.67 -12.98 7.34 -14 7 C-13.875 5.1875 -13.875 5.1875 -13 3 C-8.64598994 0.09732662 -5.17661156 -0.56472126 0 0 Z " fill="#EFEFEF" transform="translate(1452,307)"/>
<path d="M0 0 C3.5386994 1.65139305 4.81070153 2.71605229 7 6 C7.31884766 8.17651367 7.31884766 8.17651367 7.4140625 10.66796875 C7.45273437 11.56064453 7.49140625 12.45332031 7.53125 13.37304688 C7.5621875 14.30181641 7.593125 15.23058594 7.625 16.1875 C7.66367187 17.12787109 7.70234375 18.06824219 7.7421875 19.03710938 C7.83643187 21.3578771 7.92204025 23.67863748 8 26 C8.99 26.33 9.98 26.66 11 27 C11 27.99 11 28.98 11 30 C5.46153846 30.36923077 5.46153846 30.36923077 3.125 28.5 C2.75375 28.005 2.3825 27.51 2 27 C1.60683594 27.48597656 1.21367187 27.97195313 0.80859375 28.47265625 C-2.11577871 30.94226669 -4.92711048 30.47437553 -8.61328125 30.33984375 C-11 30 -11 30 -13.625 28.5 C-15.51112608 25.07067986 -16.01435425 21.81874543 -15 18 C-11.99627955 14.00476018 -9.05015636 13.21003127 -4.25 12.25 C-3.07953125 12.00765625 -1.9090625 11.7653125 -0.703125 11.515625 C0.18890625 11.34546875 1.0809375 11.1753125 2 11 C2 9.02 2 7.04 2 5 C-5.07840213 4.4970591 -5.07840213 4.4970591 -11 8 C-11.99 7.67 -12.98 7.34 -14 7 C-13.875 5.1875 -13.875 5.1875 -13 3 C-8.64598994 0.09732662 -5.17661156 -0.56472126 0 0 Z " fill="#F2F3F3" transform="translate(332,307)"/>
<path d="M0 0 C5.65116279 2.30232558 5.65116279 2.30232558 7 5 C7.08400529 6.59447464 7.10727467 8.19240545 7.09765625 9.7890625 C7.09443359 10.73007812 7.09121094 11.67109375 7.08789062 12.640625 C7.07951172 13.62546875 7.07113281 14.6103125 7.0625 15.625 C7.05798828 16.61757813 7.05347656 17.61015625 7.04882812 18.6328125 C7.03702145 21.0886016 7.020554 23.54427104 7 26 C8.32 26 9.64 26 11 26 C11 27.32 11 28.64 11 30 C9.02 30 7.04 30 5 30 C4.67 29.01 4.34 28.02 4 27 C3.38125 27.495 2.7625 27.99 2.125 28.5 C-2.26638731 30.60786591 -6.2109558 30.84797578 -11 30 C-14.42005762 27.31281187 -14.89868502 25.72186921 -15.5 21.4375 C-14.90286479 17.33219542 -14.17517609 16.55778074 -11 14 C-7.765625 12.734375 -7.765625 12.734375 -4.25 11.75 C-3.07953125 11.41484375 -1.9090625 11.0796875 -0.703125 10.734375 C0.18890625 10.49203125 1.0809375 10.2496875 2 10 C2 8.68 2 7.36 2 6 C-1.05693322 4.47153339 -3.62984547 4.76757555 -7 5 C-9.28484306 6.39957197 -9.28484306 6.39957197 -11 8 C-11.66 8 -12.32 8 -13 8 C-13.33 7.01 -13.66 6.02 -14 5 C-8.93059372 0.86443172 -6.67147725 -0.44476515 0 0 Z " fill="#F2F2F2" transform="translate(692,307)"/>
<path d="M0 0 C4.56944444 2.13888889 4.56944444 2.13888889 6 5 C6.08400529 6.59447464 6.10727467 8.19240545 6.09765625 9.7890625 C6.09443359 10.73007812 6.09121094 11.67109375 6.08789062 12.640625 C6.07951172 13.62546875 6.07113281 14.6103125 6.0625 15.625 C6.05798828 16.61757813 6.05347656 17.61015625 6.04882812 18.6328125 C6.03702145 21.0886016 6.020554 23.54427104 6 26 C7.32 26 8.64 26 10 26 C10 27.32 10 28.64 10 30 C8.02 30 6.04 30 4 30 C3.67 29.01 3.34 28.02 3 27 C2.38125 27.495 1.7625 27.99 1.125 28.5 C-3.26638731 30.60786591 -7.2109558 30.84797578 -12 30 C-15.42005762 27.31281187 -15.89868502 25.72186921 -16.5 21.4375 C-15.90286479 17.33219542 -15.17517609 16.55778074 -12 14 C-8.765625 12.734375 -8.765625 12.734375 -5.25 11.75 C-4.07953125 11.41484375 -2.9090625 11.0796875 -1.703125 10.734375 C-0.81109375 10.49203125 0.0809375 10.2496875 1 10 C1 8.68 1 7.36 1 6 C-2.06429776 4.46785112 -4.6165642 4.77061452 -8 5 C-10.87146994 6.36997157 -10.87146994 6.36997157 -13 8 C-13.66 7.01 -14.32 6.02 -15 5 C-9.85528225 0.80299342 -6.75212109 -0.75023568 0 0 Z " fill="#F1F1F1" transform="translate(572,307)"/>
<path d="M0 0 C3.2421875 1.31640625 3.2421875 1.31640625 6 4 C6.75424822 7.769317 6.56428916 11.42538822 6.375 15.25 C6.34792969 16.28125 6.32085938 17.3125 6.29296875 18.375 C6.22230799 20.9187875 6.12372078 23.45833099 6 26 C7.32 26 8.64 26 10 26 C10 27.32 10 28.64 10 30 C5.44615385 30.36923077 5.44615385 30.36923077 3.1875 28.5 C2.795625 28.005 2.40375 27.51 2 27 C1.443125 27.4846875 0.88625 27.969375 0.3125 28.46875 C-3.54917535 31.0258053 -7.53340593 30.7864767 -12 30 C-15.13137045 27.46508106 -15.82654449 25.92509607 -16.5625 22 C-15.98551437 18.92274329 -15.2488123 17.27480467 -12.91015625 15.16796875 C-8.66848704 12.57439187 -3.75049117 11.35620083 1 10 C1 8.68 1 7.36 1 6 C-2.04983996 4.47508002 -4.6423369 4.76437452 -8 5 C-9.94369738 6.35429841 -9.94369738 6.35429841 -11 8 C-12.32 7.34 -13.64 6.68 -15 6 C-10.24386625 1.11870483 -7.05132665 -1.32516311 0 0 Z " fill="#F0F1F1" transform="translate(891,307)"/>
<path d="M0 0 C2.60593251 2.15920122 3.86521782 3.68077904 5.1875 6.8125 C5.1875 9.4525 5.1875 12.0925 5.1875 14.8125 C-1.7425 14.8125 -8.6725 14.8125 -15.8125 14.8125 C-14.39683822 19.68876313 -14.39683822 19.68876313 -11.8125 23.8125 C-9.58418647 24.05125423 -9.58418647 24.05125423 -7 24.0625 C-5.69095703 24.10117187 -5.69095703 24.10117187 -4.35546875 24.140625 C-1.37345623 23.75584919 -0.0353886 22.78149223 2.1875 20.8125 C2.8475 21.1425 3.5075 21.4725 4.1875 21.8125 C2.93773244 25.46566671 2.51651247 26.59315836 -0.8125 28.8125 C-6.18916855 29.47118019 -11.1509421 29.74297242 -15.9375 27.0625 C-20.37983323 21.73170012 -20.29119109 16.98564052 -20.19921875 10.1796875 C-19.64778801 5.37834108 -18.51118249 3.83869476 -14.8125 0.8125 C-10.49273095 -2.46456618 -4.7657105 -2.01218888 0 0 Z " fill="#F1F1F2" transform="translate(1213.8125,308.1875)"/>
<path d="M0 0 C4.33219178 2.75684932 4.33219178 2.75684932 5.75 5.75 C5.75 8.72 5.75 11.69 5.75 14.75 C-1.18 14.75 -8.11 14.75 -15.25 14.75 C-13.17492406 22.16770416 -13.17492406 22.16770416 -10.5 24.3125 C-7.16713774 24.96055655 -4.53766646 24.5270848 -1.25 23.75 C-0.23131338 22.76904252 0.77351983 21.77297922 1.75 20.75 C3.9375 21.0625 3.9375 21.0625 5.75 21.75 C4.34232033 25.15189253 2.89790878 26.83551374 -0.25 28.75 C-4.30484817 29.41930094 -8.18692998 29.35028942 -12.25 28.75 C-15.75401509 26.22710914 -17.62155907 23.69475778 -19.25 19.75 C-19.91701024 14.18124009 -19.98172128 9.29474492 -17.5625 4.1875 C-12.24783153 -1.41444784 -7.40821666 -2.8493141 0 0 Z " fill="#F2F2F3" transform="translate(1349.25,308.25)"/>
<path d="M0 0 C3.46868763 2.06645221 5.80891972 4.10191909 7 8 C7 10.64 7 13.28 7 16 C0.07 16 -6.86 16 -14 16 C-11.92492406 23.41770416 -11.92492406 23.41770416 -9.25 25.5625 C-5.91713774 26.21055655 -3.28766646 25.7770848 0 25 C1.92283085 23.58408173 1.92283085 23.58408173 3 22 C3.99 22.33 4.98 22.66 6 23 C5.64199502 25.59553608 5.23835403 26.77109123 3.32421875 28.609375 C-1.05302933 31.22836713 -6.0727198 30.60664189 -11 30 C-15.2401826 27.71030139 -16.51471465 25.46866024 -18 21 C-18.64620252 15.41711078 -18.73885046 10.55979542 -16.3125 5.4375 C-11.40981435 0.26980431 -7.02541655 -1.16027751 0 0 Z " fill="#F3F3F3" transform="translate(1424,307)"/>
<path d="M0 0 C3.01665131 1.75917031 5.41424743 3.82849486 7 7 C7 9.97 7 12.94 7 16 C0.4 16 -6.2 16 -13 16 C-10.97384121 23.77277038 -10.97384121 23.77277038 -7 26 C-5.00281193 26.13871359 -5.00281193 26.13871359 -2.9375 25.8125 C-2.24527344 25.73644531 -1.55304688 25.66039062 -0.83984375 25.58203125 C1.394538 25.0863543 1.394538 25.0863543 3 22 C4.32 22.33 5.64 22.66 7 23 C5.53032105 27.65398335 5.53032105 27.65398335 3.2578125 29.13671875 C-1.05999205 30.78764402 -5.46738046 30.63627221 -10 30 C-13.66711478 28.31471845 -15.57010167 25.85979667 -17.375 22.25 C-18.46285973 16.59312942 -19.05621755 11.40923293 -16.375 6.125 C-12.2109844 0.64603211 -6.7466119 -1.4754022 0 0 Z " fill="#F3F3F3" transform="translate(392,307)"/>
<path d="M0 0 C2.99406599 1.11208165 4.86209051 2.64829956 7 5 C7.33 4.01 7.66 3.02 8 2 C11.24313482 -0.28220598 14.1187942 -0.32343382 18 0 C20.25 0.6875 20.25 0.6875 22 2 C23.77647389 5.62212512 24.24012563 8.50875578 24.1953125 12.51953125 C24.18886719 13.54111328 24.18242188 14.56269531 24.17578125 15.61523438 C24.15902344 16.67033203 24.14226562 17.72542969 24.125 18.8125 C24.11597656 19.88693359 24.10695313 20.96136719 24.09765625 22.06835938 C24.07415306 24.71246854 24.04129575 27.35611872 24 30 C22.68 30 21.36 30 20 30 C19.98541748 29.34926514 19.97083496 28.69853027 19.95581055 28.02807617 C19.88135451 25.08061694 19.78468734 22.13429358 19.6875 19.1875 C19.65366211 17.65125977 19.65366211 17.65125977 19.61914062 16.08398438 C19.58369141 15.10107422 19.54824219 14.11816406 19.51171875 13.10546875 C19.48553467 12.19949951 19.45935059 11.29353027 19.43237305 10.36010742 C18.92081091 7.56774652 18.31819807 6.61386757 16 5 C12.41666667 4.91666667 12.41666667 4.91666667 9 6 C7.06346629 8.86781954 6.71712085 11.35485785 6.5859375 14.765625 C6.54726562 15.65507812 6.50859375 16.54453125 6.46875 17.4609375 C6.42234375 18.84152344 6.42234375 18.84152344 6.375 20.25 C6.33632812 21.18585938 6.29765625 22.12171875 6.2578125 23.0859375 C6.16375156 25.39043054 6.07810601 27.69492013 6 30 C4.68 30 3.36 30 2 30 C1.98018066 29.31373535 1.96036133 28.6274707 1.93994141 27.92041016 C1.84489055 24.82154221 1.73513153 21.72336706 1.625 18.625 C1.5940625 17.54476563 1.563125 16.46453125 1.53125 15.3515625 C1.49257812 14.3203125 1.45390625 13.2890625 1.4140625 12.2265625 C1.36693115 10.79691162 1.36693115 10.79691162 1.31884766 9.33837891 C1.21444204 6.81104824 1.21444204 6.81104824 -1 5 C-5.19661382 4.51676783 -5.19661382 4.51676783 -8.8125 6.375 C-10.87493745 9.19728283 -11.16372379 11.12405123 -11.31640625 14.5703125 C-11.35830078 15.46621094 -11.40019531 16.36210937 -11.44335938 17.28515625 C-11.48267578 18.22230469 -11.52199219 19.15945313 -11.5625 20.125 C-11.62727539 21.54232422 -11.62727539 21.54232422 -11.69335938 22.98828125 C-11.79959072 25.32537092 -11.90163176 27.6625683 -12 30 C-13.32 30 -14.64 30 -16 30 C-16 20.43 -16 10.86 -16 1 C-14.68 1 -13.36 1 -12 1 C-11.67 1.99 -11.34 2.98 -11 4 C-10.29875 3.34 -9.5975 2.68 -8.875 2 C-5.50426417 -0.34485971 -4.01864402 -0.51301839 0 0 Z " fill="#F6F6F6" transform="translate(1485,307)"/>
<path d="M0 0 C2.58318982 2.51521114 3.17770678 3.76122205 3.375 7.3125 C2.385 7.6425 1.395 7.9725 0.375 8.3125 C-0.264375 7.4875 -0.90375 6.6625 -1.5625 5.8125 C-5.23864197 2.81156778 -6.90981464 2.79743836 -11.47265625 3.0859375 C-12.18292969 3.16070312 -12.89320313 3.23546875 -13.625 3.3125 C-15.0790625 3.43625 -15.0790625 3.43625 -16.5625 3.5625 C-18.76220262 4.13679678 -18.76220262 4.13679678 -19.875 6.125 C-22.29546274 13.18468299 -22.87550648 20.8587202 -20.3125 27.9375 C-18.6809648 30.53301248 -18.6809648 30.53301248 -15.625 32.3125 C-12.23540579 32.85828212 -9.01403203 32.86647639 -5.625 32.3125 C-2.7278059 29.99976558 -2.7278059 29.99976558 -0.625 27.3125 C1.6875 26.5 1.6875 26.5 3.375 26.3125 C3.705 26.9725 4.035 27.6325 4.375 28.3125 C2.10823742 32.73268704 0.14149079 35.72366974 -4.625 37.3125 C-10.16546352 37.80018871 -15.02394848 38.05584535 -20.125 35.6875 C-24.67630657 31.36375876 -27.34192219 27.24267333 -27.79296875 20.98046875 C-27.8437515 14.53105937 -27.39521552 9.19729567 -23.9375 3.5625 C-17.45336454 -2.74638856 -8.10302152 -3.77209623 0 0 Z " fill="#F1F1F1" transform="translate(481.625,299.6875)"/>
<path d="M0 0 C2.58318982 2.51521114 3.17770678 3.76122205 3.375 7.3125 C2.385 7.6425 1.395 7.9725 0.375 8.3125 C-0.553125 7.075 -0.553125 7.075 -1.5 5.8125 C-4.05842925 3.24676095 -6.03829227 2.87312579 -9.625 2.75 C-13.09592884 2.93077754 -14.55282933 3.27040044 -17.625 5.0625 C-21.96115003 9.94066878 -21.97989204 14.02736579 -21.89453125 20.390625 C-21.57084775 23.89954174 -20.4987959 26.34565649 -18.625 29.3125 C-18.625 29.9725 -18.625 30.6325 -18.625 31.3125 C-15.6918642 32.29021193 -13.74321006 32.44669011 -10.6875 32.4375 C-9.83285156 32.44007813 -8.97820312 32.44265625 -8.09765625 32.4453125 C-5.75524005 32.31949552 -3.82473352 32.12703547 -1.625 31.3125 C-0.32839566 28.82215614 -0.32839566 28.82215614 0.375 26.3125 C1.695 26.6425 3.015 26.9725 4.375 27.3125 C3.06454637 31.24386089 1.54291954 33.62456827 -1.625 36.3125 C-7.63866298 38.31705433 -14.33877996 38.33313395 -20.125 35.75 C-24.19629089 31.78049138 -27.35554099 26.89693146 -27.79296875 21.078125 C-27.84330932 14.59426009 -27.41440988 9.22857536 -23.9375 3.5625 C-17.45336454 -2.74638856 -8.10302152 -3.77209623 0 0 Z " fill="#F1F2F2" transform="translate(139.625,299.6875)"/>
<path d="M0 0 C3.38939556 2.13679285 4.72582557 3.1774767 6 7 C6.36994554 12.64166944 6.11787827 16.0833458 3 21 C0.67313547 22.16343227 -0.84721413 22.19895988 -3.4375 22.25 C-4.21996094 22.27578125 -5.00242187 22.3015625 -5.80859375 22.328125 C-8.53677498 21.91962728 -9.3441611 21.16727539 -11 19 C-12.64238919 14.07283243 -12.5700079 9.06079779 -11.1875 4.0625 C-8.48834075 -0.62551343 -4.93039966 -0.51004134 0 0 Z " fill="#26292E" transform="translate(1291,311)"/>
<path d="M0 0 C2.82598367 0.86349501 3.71542837 1.53045682 5.25 4.0625 C6.58438238 9.28883098 6.92329936 14.07311437 4.5625 19 C3 21 3 21 2 22 C-0.1796875 22.23828125 -0.1796875 22.23828125 -2.875 22.3125 C-3.75929688 22.34988281 -4.64359375 22.38726562 -5.5546875 22.42578125 C-8 22 -8 22 -9.7578125 20.16796875 C-12.19179104 15.91998733 -12.53426251 11.79898952 -12 7 C-9.34199186 1.17769646 -6.33910478 -0.51747794 0 0 Z " fill="#26282D" transform="translate(965,311)"/>
<path d="M0 0 C4.26249305 0.43347387 5.77460812 1.29076153 8.6875 4.375 C10.23477006 7.82660243 9.94391117 11.65703804 9.6875 15.375 C7.46169355 20.60080645 7.46169355 20.60080645 5.6875 22.375 C0.97028434 22.97646648 -2.98443884 23.32361511 -6.9375 20.5 C-8.88934829 16.06398115 -8.97987188 12.1486718 -8.3125 7.375 C-6.35605094 3.10638387 -4.82811465 0.54657902 0 0 Z " fill="#25282D" transform="translate(634.3125,310.625)"/>
<path d="M0 0 C2.69990662 1.79993774 4.5418865 3.083773 6 6 C6.59378882 11.70950788 6.20395799 16.07083387 3 21 C-0.44001498 22.72000749 -4.23798872 22.5108052 -8 22 C-11.3870293 18.9305047 -11.96007539 15.61883151 -12.25 11.125 C-12.20103123 7.31942721 -11.41208795 5.03744409 -9 2 C-5.48746854 -0.34168764 -4.13530644 -0.49623677 0 0 Z " fill="#272A2F" transform="translate(248,311)"/>
<path d="M0 0 C2.9375 1.75 2.9375 1.75 5 5 C5.8550754 10.43047886 5.8773085 15.21029067 3.4375 20.1875 C0.17231223 22.61546013 -1.93842533 23.0712557 -6 23 C-9.42741629 20.91374661 -10.72481037 19.8255689 -12 16 C-12.58044394 10.64333165 -12.9230345 6.42650787 -9.9375 1.8125 C-6.2104623 -0.48716156 -4.30752863 -0.76920154 0 0 Z " fill="#272A2F" transform="translate(422,311)"/>
<path d="M0 0 C3.61585252 2.41056835 5.01587459 3.86714331 6.8125 7.875 C7.50658081 13.44181137 8.14296801 19.61174784 5.0625 24.5625 C1.4625299 28.26246927 -1.43036461 29.1903063 -6.5625 29.3125 C-10.26601525 29.2383308 -12.77687226 29.03306846 -15.75 26.75 C-19.84441807 21.92068638 -20.66698561 17.30999799 -20.5 11.12109375 C-19.95361792 7.19397258 -18.60036057 5.04981654 -16.1875 1.875 C-10.86833783 -1.78931172 -6.0516031 -2.13585992 0 0 Z M-13.125 4.6875 C-16.13601338 9.34088431 -15.94225754 13.47807777 -15.1875 18.875 C-13.58451349 22.61530185 -12.59012302 23.60658465 -9.1875 25.875 C-5.24922672 25.73179006 -2.93647184 25.46629356 0.1875 23 C2.84990952 19.51838756 3.14534324 16.26770728 3.10546875 11.9453125 C2.6297593 8.58363236 0.93718751 6.43712317 -1.1875 3.875 C-5.45977498 1.73886251 -9.15322584 2.23683084 -13.125 4.6875 Z " fill="#F1F1F1" transform="translate(764.1875,308.125)"/>
<path d="M0 0 C3.61585252 2.41056835 5.01587459 3.86714331 6.8125 7.875 C7.50658081 13.44181137 8.14296801 19.61174784 5.0625 24.5625 C1.4625299 28.26246927 -1.43036461 29.1903063 -6.5625 29.3125 C-10.26601525 29.2383308 -12.77687226 29.03306846 -15.75 26.75 C-19.84441807 21.92068638 -20.66698561 17.30999799 -20.5 11.12109375 C-19.95361792 7.19397258 -18.60036057 5.04981654 -16.1875 1.875 C-10.86833783 -1.78931172 -6.0516031 -2.13585992 0 0 Z M-13.125 4.6875 C-16.13601338 9.34088431 -15.94225754 13.47807777 -15.1875 18.875 C-13.58451349 22.61530185 -12.59012302 23.60658465 -9.1875 25.875 C-5.24922672 25.73179006 -2.93647184 25.46629356 0.1875 23 C2.84990952 19.51838756 3.14534324 16.26770728 3.10546875 11.9453125 C2.6297593 8.58363236 0.93718751 6.43712317 -1.1875 3.875 C-5.45977498 1.73886251 -9.15322584 2.23683084 -13.125 4.6875 Z " fill="#F1F1F1" transform="translate(185.1875,308.125)"/>
<path d="M0 0 C3.61585252 2.41056835 5.01587459 3.86714331 6.8125 7.875 C7.50658081 13.44181137 8.14296801 19.61174784 5.0625 24.5625 C1.4625299 28.26246927 -1.43036461 29.1903063 -6.5625 29.3125 C-10.26601525 29.2383308 -12.77687226 29.03306846 -15.75 26.75 C-19.18868907 22.69411032 -20.02388981 19.67471204 -20.5 14.4375 C-20.04721796 9.27578473 -18.52992448 5.46912907 -15.1875 1.5 C-10.64293521 -2.19245889 -5.31151689 -1.87465302 0 0 Z M-13.125 4.6875 C-16.13601338 9.34088431 -15.94225754 13.47807777 -15.1875 18.875 C-13.58451349 22.61530185 -12.59012302 23.60658465 -9.1875 25.875 C-5.24922672 25.73179006 -2.93647184 25.46629356 0.1875 23 C3.23555369 19.01408364 3.35206779 14.72164402 2.8125 9.875 C1.17562815 6.28947119 0.12277417 5.08184945 -3.1875 2.875 C-7.39601192 2.32945216 -9.48549985 2.44185097 -13.125 4.6875 Z " fill="#F2F2F2" transform="translate(511.1875,308.125)"/>
<path d="M0 0 C3.14013437 2.02364215 4.75995849 3.6926369 6.8125 6.8125 C7.71689463 12.49821627 8.23266493 19.49275211 5.0625 24.5625 C1.39840776 28.22659224 -1.46968207 29.11599767 -6.625 29.1875 C-10.36227053 29.11773762 -11.94376553 28.95177684 -15.25 27.0625 C-19.79554345 21.78380438 -19.66629945 16.99365923 -19.57421875 10.1796875 C-19.02278801 5.37834108 -17.88618249 3.83869476 -14.1875 0.8125 C-9.83815452 -2.37702002 -4.85924172 -1.81030574 0 0 Z M-13.125 5.125 C-16.30932133 9.55352636 -16.00075906 14.61711688 -15.1875 19.8125 C-14.0780188 23.15943621 -14.0780188 23.15943621 -11.1875 24.8125 C-7.75870178 25.42979592 -4.58596625 25.63516712 -1.1875 24.8125 C2.69910821 20.69982509 3.14972262 16.47343796 3.10546875 11.0390625 C2.67196619 7.74444303 1.18700458 6.04732784 -1.1875 3.8125 C-5.71803785 1.54723108 -9.2274363 2.05670517 -13.125 5.125 Z " fill="#F2F3F3" transform="translate(1108.1875,308.1875)"/>
<path d="M0 0 C3.6875 0.4375 3.6875 0.4375 6.625 2.1875 C9.70536024 7.04140098 9.42051432 11.82801144 8.6875 17.4375 C7.23008675 21.16620662 7.23008675 21.16620662 4.6875 22.4375 C2.62890625 22.640625 2.62890625 22.640625 0.25 22.6875 C-0.53246094 22.71328125 -1.31492187 22.7390625 -2.12109375 22.765625 C-4.84927498 22.35712728 -5.6566611 21.60477539 -7.3125 19.4375 C-8.99575534 14.38773398 -9.21357581 9.36252558 -6.9375 4.5 C-3.78601627 0.50003989 -3.78601627 0.50003989 0 0 Z " fill="#24272C" transform="translate(601.3125,310.5625)"/>
<path d="M0 0 C3.38031589 1.18767855 3.93216817 1.89825225 6 5 C6.22705078 7.63549805 6.22705078 7.63549805 6.1953125 10.76171875 C6.18886719 11.87998047 6.18242188 12.99824219 6.17578125 14.15039062 C6.15902344 15.31763672 6.14226563 16.48488281 6.125 17.6875 C6.11597656 18.86634766 6.10695313 20.04519531 6.09765625 21.25976562 C6.07406423 24.17338026 6.0411454 27.08658892 6 30 C4.68 30 3.36 30 2 30 C1.98018066 29.31373535 1.96036133 28.6274707 1.93994141 27.92041016 C1.84489055 24.82154221 1.73513153 21.72336706 1.625 18.625 C1.5940625 17.54476563 1.563125 16.46453125 1.53125 15.3515625 C1.49257813 14.3203125 1.45390625 13.2890625 1.4140625 12.2265625 C1.36693115 10.79691162 1.36693115 10.79691162 1.31884766 9.33837891 C1.21444204 6.81104824 1.21444204 6.81104824 -1 5 C-4.62876213 4.59680421 -7.02407595 4.39485713 -10.1796875 6.3515625 C-13.04625903 10.52223954 -12.67750759 14.8007456 -12.75 19.75 C-12.77964844 20.73355469 -12.80929687 21.71710938 -12.83984375 22.73046875 C-12.91042411 25.15372776 -12.96317701 27.57603154 -13 30 C-14.65 30 -16.3 30 -18 30 C-18 20.43 -18 10.86 -18 1 C-16.35 1 -14.7 1 -13 1 C-12.67 1.99 -12.34 2.98 -12 4 C-11.319375 3.34 -10.63875 2.68 -9.9375 2 C-6.29057391 -0.48301351 -4.33434444 -0.47283757 0 0 Z " fill="#ECECED" transform="translate(797,307)"/>
<path d="M0 0 C2.5625 2.0625 2.5625 2.0625 4 4 C2.02 4.99 2.02 4.99 0 6 C-0.66 5.34 -1.32 4.68 -2 4 C-4.68839385 3.73008094 -7.29141936 3.91262643 -10 4 C-10.33 5.65 -10.66 7.3 -11 9 C-10.41992188 9.17015625 -9.83984375 9.3403125 -9.2421875 9.515625 C-4.31657044 11.04370422 0.10229805 12.49206825 4 16 C5.00123076 19.50430765 5.35510419 21.80555863 4.3125 25.3125 C2.1490092 28.09413103 -0.16419685 28.89287769 -3.62109375 29.3359375 C-11.29497074 29.4423713 -11.29497074 29.4423713 -15.1875 27 C-15.785625 26.34 -16.38375 25.68 -17 25 C-16.34 23.68 -15.68 22.36 -15 21 C-14.44828125 21.49113281 -13.8965625 21.98226563 -13.328125 22.48828125 C-10.53629931 24.30109424 -9.03814259 24.3172951 -5.75 24.1875 C-4.85796875 24.16042969 -3.9659375 24.13335937 -3.046875 24.10546875 C-2.03367187 24.05326172 -2.03367187 24.05326172 -1 24 C-1 22.02 -1 20.04 -1 18 C-2.24716797 17.61908203 -2.24716797 17.61908203 -3.51953125 17.23046875 C-4.60621094 16.88628906 -5.69289063 16.54210937 -6.8125 16.1875 C-8.43091797 15.68283203 -8.43091797 15.68283203 -10.08203125 15.16796875 C-12.86171061 14.05535278 -14.28959995 13.41916172 -16 11 C-16.60885342 8.27935767 -16.52519367 5.73443225 -16 3 C-11.55177023 -1.75500424 -5.9216033 -1.43230116 0 0 Z " fill="#EDEEEE" transform="translate(1533,308)"/>
<path d="M0 0 C1.32 0 2.64 0 4 0 C4.02505615 0.61520508 4.0501123 1.23041016 4.07592773 1.86425781 C4.19218487 4.65970156 4.31477642 7.45483298 4.4375 10.25 C4.47681641 11.21808594 4.51613281 12.18617188 4.55664062 13.18359375 C4.61948242 14.58544922 4.61948242 14.58544922 4.68359375 16.015625 C4.72025146 16.87446289 4.75690918 17.73330078 4.79467773 18.61816406 C4.98703514 20.84960143 5.38846244 22.84982524 6 25 C10.88530291 25.33350061 10.88530291 25.33350061 15.375 23.6875 C18.01124534 20.94986061 18.14589147 18.18031022 18.31640625 14.55078125 C18.35830078 13.70322266 18.40019531 12.85566406 18.44335938 11.98242188 C18.48267578 11.10134766 18.52199219 10.22027344 18.5625 9.3125 C18.60568359 8.41982422 18.64886719 7.52714844 18.69335938 6.60742188 C18.79935353 4.40509892 18.90142051 2.20266527 19 0 C20.32 0 21.64 0 23 0 C23 9.57 23 19.14 23 29 C21.68 29 20.36 29 19 29 C18.67 28.01 18.34 27.02 18 26 C17.60683594 26.48597656 17.21367187 26.97195313 16.80859375 27.47265625 C13.88460629 29.94194156 11.06884646 29.46683955 7.3828125 29.359375 C5 29 5 29 2.4375 27.1875 C0.14483838 23.69866709 -0.12118966 20.96581098 -0.09765625 16.89453125 C-0.09443359 15.91162109 -0.09121094 14.92871094 -0.08789062 13.91601562 C-0.07951172 12.89185547 -0.07113281 11.86769531 -0.0625 10.8125 C-0.05798828 9.77673828 -0.05347656 8.74097656 -0.04882812 7.67382812 C-0.0370401 5.11582734 -0.02058515 2.55794267 0 0 Z " fill="#F6F6F6" transform="translate(200,308)"/>
<path d="M0 0 C3.0625 2.5 3.0625 2.5 5 5 C4.01 5.66 3.02 6.32 2 7 C1.01 6.34 0.02 5.68 -1 5 C-3.05709596 4.75944532 -3.05709596 4.75944532 -5.1875 4.875 C-6.445625 4.91625 -7.70375 4.9575 -9 5 C-9.33 6.65 -9.66 8.3 -10 10 C-8.783125 10.45375 -7.56625 10.9075 -6.3125 11.375 C-5.58289063 11.65085937 -4.85328125 11.92671875 -4.1015625 12.2109375 C-2.46960178 12.82368112 -0.82996981 13.41601073 0.8125 14 C3.2536149 15.11593824 4.5218848 15.74392942 6 18 C6.62025759 22.18673873 6.42684146 24.28351612 4.25 27.9375 C-0.65678515 31.05142134 -5.34139388 30.88318024 -11 30 C-14.25 28 -14.25 28 -16 26 C-15.505 24.515 -15.505 24.515 -15 23 C-12.79721596 23.47202515 -11.11434748 23.9290257 -9.1875 25.125 C-5.96281256 26.41487498 -3.34187382 25.64266804 0 25 C0.67958603 22.60280568 0.67958603 22.60280568 1 20 C-1.30072384 17.69927616 -2.2521457 17.60718389 -5.375 17.0625 C-11.85919317 15.67600853 -11.85919317 15.67600853 -14 13 C-15.01877144 10.24332434 -15.4092423 7.92153528 -15 5 C-10.95907044 -0.10433208 -6.39417286 -1.52801925 0 0 Z " fill="#F2F2F2" transform="translate(362,307)"/>
<path d="M0 0 C13.19405906 -0.49323585 13.19405906 -0.49323585 16.9296875 1.79296875 C19 4 19 4 19.4375 7.5625 C19 11 19 11 17 14 C11.57364835 15.80878388 5.66885438 15.05200784 0 15 C0 10.05 0 5.1 0 0 Z " fill="#26292D" transform="translate(287,318)"/>
<path d="M0 0 C9.57 0 19.14 0 29 0 C29 1.32 29 2.64 29 4 C25.04 4 21.08 4 17 4 C17 15.55 17 27.1 17 39 C15.68 39 14.36 39 13 39 C13 27.45 13 15.9 13 4 C8.71 4 4.42 4 0 4 C0 2.68 0 1.36 0 0 Z " fill="#F6F6F6" transform="translate(1372,298)"/>
<path d="M0 0 C11.06976744 -0.60822898 11.06976744 -0.60822898 15.25 2.125 C17.30475477 5.50066854 17.6606452 7.11870948 17 11 C15.22015595 14.1359157 14.47691793 14.84102736 11 16 C7.32893957 16.13281695 3.67480286 16.04323297 0 16 C0 10.72 0 5.44 0 0 Z " fill="#25282D" transform="translate(832,302)"/>
<path d="M0 0 C0.66 0.66 1.32 1.32 2 2 C1.67 2.66 1.34 3.32 1 4 C-2.3 4 -5.6 4 -9 4 C-9.33 6.64 -9.66 9.28 -10 12 C-6.7 12 -3.4 12 0 12 C0 12.99 0 13.98 0 15 C-3.3 15 -6.6 15 -10 15 C-10 23.58 -10 32.16 -10 41 C-11.32 41 -12.64 41 -14 41 C-14 32.42 -14 23.84 -14 15 C-15.65 15 -17.3 15 -19 15 C-19 14.01 -19 13.02 -19 12 C-17.35 12 -15.7 12 -14 12 C-14.0825 10.7625 -14.165 9.525 -14.25 8.25 C-14.21890983 5.32752441 -14.06715887 4.12210703 -12.625 1.5 C-8.63254365 -0.78140363 -4.50122199 -0.67439911 0 0 Z " fill="#F6F6F6" transform="translate(945,296)"/>
<path d="M0 0 C0 1.32 0 2.64 0 4 C-1.299375 3.979375 -2.59875 3.95875 -3.9375 3.9375 C-5.29165633 3.91600546 -6.64756083 3.92851801 -8 4 C-9.96822886 5.96822886 -9.66248381 9.34808709 -10 12 C-7.03 12 -4.06 12 -1 12 C-1 12.99 -1 13.98 -1 15 C-3.97 15 -6.94 15 -10 15 C-10 23.58 -10 32.16 -10 41 C-11.32 41 -12.64 41 -14 41 C-14 32.42 -14 23.84 -14 15 C-15.65 15 -17.3 15 -19 15 C-19 14.01 -19 13.02 -19 12 C-17.35 12 -15.7 12 -14 12 C-14.0825 10.7625 -14.165 9.525 -14.25 8.25 C-14.21890983 5.32752441 -14.06715887 4.12210703 -12.625 1.5 C-8.56988944 -0.81720603 -4.56419136 -0.3135704 0 0 Z " fill="#FCFCFC" transform="translate(1085,296)"/>
<path d="M0 0 C1.32 0 2.64 0 4 0 C4 2.31 4 4.62 4 7 C6.97 7 9.94 7 13 7 C13 7.99 13 8.98 13 10 C10.03 10 7.06 10 4 10 C4.14014682 13.3128323 4.28683615 16.62514408 4.4375 19.9375 C4.47681641 20.88302734 4.51613281 21.82855469 4.55664062 22.80273438 C4.61948242 24.15141602 4.61948242 24.15141602 4.68359375 25.52734375 C4.72025146 26.35999756 4.75690918 27.19265137 4.79467773 28.05053711 C4.79367103 30.00338858 4.79367103 30.00338858 6 31 C7.34747084 31.23075082 8.70377565 31.41153063 10.0625 31.5625 C11.361875 31.706875 12.66125 31.85125 14 32 C13.67 33.32 13.34 34.64 13 36 C11.39815374 36.1352403 9.79303374 36.23210847 8.1875 36.3125 C7.29417969 36.37050781 6.40085937 36.42851562 5.48046875 36.48828125 C3 36 3 36 1.1875 34.15625 C-0.56552846 29.49688489 -0.31664299 25.118113 -0.1875 20.1875 C-0.17396484 19.20845703 -0.16042969 18.22941406 -0.14648438 17.22070312 C-0.11125312 14.81323375 -0.06199265 12.40690436 0 10 C-1.65 10 -3.3 10 -5 10 C-5 9.01 -5 8.02 -5 7 C-3.35 7 -1.7 7 0 7 C0 4.69 0 2.38 0 0 Z " fill="#F9F9F9" transform="translate(1311,301)"/>
<path d="M0 0 C1.32 0 2.64 0 4 0 C4 2.31 4 4.62 4 7 C6.97 7 9.94 7 13 7 C13 7.99 13 8.98 13 10 C10.03 10 7.06 10 4 10 C4.14014682 13.3128323 4.28683615 16.62514408 4.4375 19.9375 C4.47681641 20.88302734 4.51613281 21.82855469 4.55664062 22.80273438 C4.61948242 24.15141602 4.61948242 24.15141602 4.68359375 25.52734375 C4.72025146 26.35999756 4.75690918 27.19265137 4.79467773 28.05053711 C4.79367103 30.00338858 4.79367103 30.00338858 6 31 C7.34747084 31.23075082 8.70377565 31.41153063 10.0625 31.5625 C11.361875 31.706875 12.66125 31.85125 14 32 C13.67 33.32 13.34 34.64 13 36 C11.39815374 36.1352403 9.79303374 36.23210847 8.1875 36.3125 C7.29417969 36.37050781 6.40085937 36.42851562 5.48046875 36.48828125 C3 36 3 36 1.1875 34.15625 C-0.56552846 29.49688489 -0.31664299 25.118113 -0.1875 20.1875 C-0.17396484 19.20845703 -0.16042969 18.22941406 -0.14648438 17.22070312 C-0.11125312 14.81323375 -0.06199265 12.40690436 0 10 C-1.65 10 -3.3 10 -5 10 C-5 9.01 -5 8.02 -5 7 C-3.35 7 -1.7 7 0 7 C0 4.69 0 2.38 0 0 Z " fill="#F9F9F9" transform="translate(909,301)"/>
<path d="M0 0 C1.32 0 2.64 0 4 0 C4 2.31 4 4.62 4 7 C6.97 7 9.94 7 13 7 C13 7.99 13 8.98 13 10 C10.03 10 7.06 10 4 10 C4.33 17.26 4.66 24.52 5 32 C8.96 31.505 8.96 31.505 13 31 C13.5625 32.9375 13.5625 32.9375 14 35 C12.34107528 36.65892472 10.39952582 36.24986813 8.125 36.3125 C6.79855469 36.36857422 6.79855469 36.36857422 5.4453125 36.42578125 C3 36 3 36 1.36547852 34.29858398 C-0.26606418 31.55211975 -0.34832435 29.97059635 -0.29296875 26.796875 C-0.28330078 25.8171875 -0.27363281 24.8375 -0.26367188 23.828125 C-0.23853516 22.81234375 -0.21339844 21.7965625 -0.1875 20.75 C-0.17396484 19.71875 -0.16042969 18.6875 -0.14648438 17.625 C-0.11117607 15.08280208 -0.06186036 12.54166777 0 10 C-1.65 10 -3.3 10 -5 10 C-5 9.01 -5 8.02 -5 7 C-3.35 7 -1.7 7 0 7 C0 4.69 0 2.38 0 0 Z " fill="#FAFAFA" transform="translate(711,301)"/>
<path d="M0 0 C1.65 0 3.3 0 5 0 C5.33 12.21 5.66 24.42 6 37 C7.32 37.33 8.64 37.66 10 38 C10 38.99 10 39.98 10 41 C6.6875 41.25 6.6875 41.25 3 41 C0.15146915 38.52880911 -0.00570281 36.9355235 -0.34057617 33.14941406 C-0.34010348 31.60473626 -0.3232888 30.06000527 -0.29296875 28.515625 C-0.28872391 27.70003113 -0.28447906 26.88443726 -0.28010559 26.04412842 C-0.26334715 23.44574616 -0.22570097 20.84814681 -0.1875 18.25 C-0.17244946 16.48568831 -0.1587617 14.72136442 -0.14648438 12.95703125 C-0.11345301 8.63772035 -0.06169086 4.3189928 0 0 Z " fill="#E3E3E4" transform="translate(861,296)"/>
<path d="M0 0 C1.65 0 3.3 0 5 0 C5.33 12.21 5.66 24.42 6 37 C7.32 37.33 8.64 37.66 10 38 C10 38.99 10 39.98 10 41 C6.6875 41.25 6.6875 41.25 3 41 C0.15146915 38.52880911 -0.00570281 36.9355235 -0.34057617 33.14941406 C-0.34010348 31.60473626 -0.3232888 30.06000527 -0.29296875 28.515625 C-0.28872391 27.70003113 -0.28447906 26.88443726 -0.28010559 26.04412842 C-0.26334715 23.44574616 -0.22570097 20.84814681 -0.1875 18.25 C-0.17244946 16.48568831 -0.1587617 14.72136442 -0.14648438 12.95703125 C-0.11345301 8.63772035 -0.06169086 4.3189928 0 0 Z " fill="#E3E4E4" transform="translate(542,296)"/>
<path d="M0 0 C1.65 0 3.3 0 5 0 C5.33 12.21 5.66 24.42 6 37 C7.32 37.33 8.64 37.66 10 38 C10 38.99 10 39.98 10 41 C6.6875 41.25 6.6875 41.25 3 41 C0.15146915 38.52880911 -0.00570281 36.9355235 -0.34057617 33.14941406 C-0.34010348 31.60473626 -0.3232888 30.06000527 -0.29296875 28.515625 C-0.28872391 27.70003113 -0.28447906 26.88443726 -0.28010559 26.04412842 C-0.26334715 23.44574616 -0.22570097 20.84814681 -0.1875 18.25 C-0.17244946 16.48568831 -0.1587617 14.72136442 -0.14648438 12.95703125 C-0.11345301 8.63772035 -0.06169086 4.3189928 0 0 Z " fill="#E3E3E4" transform="translate(526,296)"/>
<path d="M0 0 C1.8975 -0.061875 3.795 -0.12375 5.75 -0.1875 C7.35101562 -0.23970703 7.35101562 -0.23970703 8.984375 -0.29296875 C12.35541238 0.03452841 13.68796703 0.55034602 16 3 C16.53125 4.9375 16.53125 4.9375 16.5 7 C16.5103125 7.680625 16.520625 8.36125 16.53125 9.0625 C16 11 16 11 14.359375 12.73828125 C11.32045844 14.36339723 9.17612843 14.29922158 5.75 14.1875 C2.90375 14.0946875 2.90375 14.0946875 0 14 C0 9.38 0 4.76 0 0 Z " fill="#272A2F" transform="translate(1165,302)"/>
<path d="M0 0 C12.75855767 -0.27735995 12.75855767 -0.27735995 16 2 C17.05738871 5.24265872 17.45030648 7.06242158 15.953125 10.1796875 C14 12 14 12 10.64453125 12.390625 C9.37996094 12.34421875 8.11539062 12.2978125 6.8125 12.25 C5.54019531 12.21390625 4.26789063 12.1778125 2.95703125 12.140625 C1.98121094 12.09421875 1.00539063 12.0478125 0 12 C0 8.04 0 4.08 0 0 Z " fill="#25272C" transform="translate(287,302)"/>
<path d="M0 0 C1.32 0 2.64 0 4 0 C4.33 11.88 4.66 23.76 5 36 C6.65 36.33 8.3 36.66 10 37 C10 38.32 10 39.64 10 41 C6.6875 41.25 6.6875 41.25 3 41 C0.15146915 38.52880911 -0.00570281 36.9355235 -0.34057617 33.14941406 C-0.34010348 31.60473626 -0.3232888 30.06000527 -0.29296875 28.515625 C-0.28872391 27.70003113 -0.28447906 26.88443726 -0.28010559 26.04412842 C-0.26334715 23.44574616 -0.22570097 20.84814681 -0.1875 18.25 C-0.17244946 16.48568831 -0.1587617 14.72136442 -0.14648438 12.95703125 C-0.11345301 8.63772035 -0.06169086 4.3189928 0 0 Z " fill="#F6F7F7" transform="translate(151,296)"/>
<path d="M0 0 C4.14193289 0.57130109 5.74008332 1.53023283 8.625 4.5 C9.64473129 7.55919388 9.74033602 9.62418025 9.72265625 12.82421875 C9.71943359 13.85224609 9.71621094 14.88027344 9.71289062 15.93945312 C9.70451172 17.01130859 9.69613281 18.08316406 9.6875 19.1875 C9.68298828 20.27095703 9.67847656 21.35441406 9.67382812 22.47070312 C9.66203743 25.14719085 9.64558063 27.82356777 9.625 30.5 C7.975 30.5 6.325 30.5 4.625 30.5 C4.295 22.58 3.965 14.66 3.625 6.5 C1.315 6.17 -0.995 5.84 -3.375 5.5 C-4.365 5.17 -5.355 4.84 -6.375 4.5 C-4.59664868 1.15251516 -3.83793714 0.56858328 0 0 Z " fill="#E4E5E5" transform="translate(1037.375,306.5)"/>
<path d="M0 0 C1.32 0 2.64 0 4 0 C4.33 0.99 4.66 1.98 5 3 C5.39832031 2.50886719 5.79664063 2.01773437 6.20703125 1.51171875 C8.5121755 -0.43183425 9.7196719 -0.316536 12.6875 -0.1875 C13.89986328 -0.14689453 13.89986328 -0.14689453 15.13671875 -0.10546875 C15.75160156 -0.07066406 16.36648438 -0.03585937 17 0 C16.67 1.32 16.34 2.64 16 4 C14.01432292 4.09765625 12.02864583 4.1953125 10.04296875 4.29296875 C7.8311809 4.87163689 7.8311809 4.87163689 6.28125 6.9375 C4.48926483 11.22078163 4.43261291 15.21045982 4.3125 19.8125 C4.27833984 20.69615234 4.24417969 21.57980469 4.20898438 22.49023438 C4.12689567 24.65972167 4.06176121 26.8298389 4 29 C2.68 29 1.36 29 0 29 C0 19.43 0 9.86 0 0 Z " fill="#F7F7F8" transform="translate(984,308)"/>
<path d="M0 0 C1.32 0 2.64 0 4 0 C4.33 0.66 4.66 1.32 5 2 C5.99 1.34 6.98 0.68 8 0 C10.04296875 -0.1953125 10.04296875 -0.1953125 12.1875 -0.125 C14.0746875 -0.063125 14.0746875 -0.063125 16 0 C16 1.32 16 2.64 16 4 C12.7 4.33 9.4 4.66 6 5 C5.21311098 8.14755608 4.82637567 10.58362787 4.68359375 13.765625 C4.64169922 14.65507812 4.59980469 15.54453125 4.55664062 16.4609375 C4.51732422 17.38132812 4.47800781 18.30171875 4.4375 19.25 C4.37272461 20.65378906 4.37272461 20.65378906 4.30664062 22.0859375 C4.2008195 24.39048641 4.09873443 26.69513839 4 29 C2.68 29 1.36 29 0 29 C0 19.43 0 9.86 0 0 Z " fill="#F7F7F7" transform="translate(657,308)"/>
<path d="M0 0 C1.32 0 2.64 0 4 0 C4.33 0.99 4.66 1.98 5 3 C5.33 2.505 5.66 2.01 6 1.5 C9.17572747 -0.88179561 12.10246066 -0.19168226 16 0 C16 1.32 16 2.64 16 4 C12.7 4.33 9.4 4.66 6 5 C5.21311098 8.14755608 4.82637567 10.58362787 4.68359375 13.765625 C4.64169922 14.65507812 4.59980469 15.54453125 4.55664062 16.4609375 C4.51732422 17.38132812 4.47800781 18.30171875 4.4375 19.25 C4.37272461 20.65378906 4.37272461 20.65378906 4.30664062 22.0859375 C4.2008195 24.39048641 4.09873443 26.69513839 4 29 C2.68 29 1.36 29 0 29 C0 19.43 0 9.86 0 0 Z " fill="#F8F8F8" transform="translate(1124,308)"/>
<path d="M0 0 C1.65 0 3.3 0 5 0 C5.33 0.66 5.66 1.32 6 2 C6.99 2 7.98 2 9 2 C8.51917969 2.76570313 8.03835938 3.53140625 7.54296875 4.3203125 C5.49086774 9.21418376 5.43712501 13.61938541 5.3125 18.875 C5.27833984 19.84953125 5.24417969 20.8240625 5.20898438 21.828125 C5.12695707 24.21863491 5.05766152 26.60879905 5 29 C3.35 29 1.7 29 0 29 C0 19.43 0 9.86 0 0 Z " fill="#E1E1E2" transform="translate(1226,308)"/>
<path d="M0 0 C6.04704734 0.53096025 6.04704734 0.53096025 8.51879883 2.31542969 C10.50123189 4.94188239 10.24303904 6.8675925 10.1953125 10.12890625 C10.18564453 11.29228516 10.17597656 12.45566406 10.16601562 13.65429688 C10.14087891 14.86923828 10.11574219 16.08417969 10.08984375 17.3359375 C10.07630859 18.56248047 10.06277344 19.78902344 10.04882812 21.05273438 C10.01343116 24.08507414 9.96405135 27.11653746 9.90234375 30.1484375 C8.58234375 30.1484375 7.26234375 30.1484375 5.90234375 30.1484375 C5.57234375 22.2284375 5.24234375 14.3084375 4.90234375 6.1484375 C2.59234375 5.8184375 0.28234375 5.4884375 -2.09765625 5.1484375 C-3.08765625 4.8184375 -4.07765625 4.4884375 -5.09765625 4.1484375 C-3.87803792 1.46527718 -3.0331944 0.21463946 0 0 Z " fill="#F4F4F5" transform="translate(1256.09765625,306.8515625)"/>
<path d="M0 0 C0.35654596 7.13091922 0.35654596 7.13091922 -1 10.4375 C-4.05082024 12.82095332 -7.17627269 13.19915246 -11 13 C-13 11.875 -13 11.875 -14 10 C-14.4375 7.5 -14.4375 7.5 -14 5 C-10.70037475 1.28792159 -4.83384475 0 0 0 Z " fill="#323539" transform="translate(335,321)"/>
<path d="M0 0 C1.32 0 2.64 0 4 0 C4.33 0.99 4.66 1.98 5 3 C5.99 2.01 6.98 1.02 8 0 C8.66 0.33 9.32 0.66 10 1 C9.47273315 1.68352539 9.47273315 1.68352539 8.93481445 2.38085938 C4.92399392 8.06916367 4.2323791 12.6384847 4.1875 19.5 C4.16236328 20.4178125 4.13722656 21.335625 4.11132812 22.28125 C4.05299439 24.52126551 4.01632472 26.75935187 4 29 C2.68 29 1.36 29 0 29 C0 19.43 0 9.86 0 0 Z " fill="#FCFCFD" transform="translate(1469,308)"/>
<path d="M0 0 C-0.18796117 7.9968932 -0.18796117 7.9968932 -3.125 11.625 C-6.82839377 13.39618832 -9.06778712 12.92522656 -13 12 C-13.33 9.69 -13.66 7.38 -14 5 C-10.15641051 1.47670963 -5.21074221 0 0 0 Z " fill="#2E3136" transform="translate(1455,321)"/>
<path d="M0 0 C0.60552093 7.14514693 0.60552093 7.14514693 -2.125 11 C-5.4580898 13.31867116 -7.02524236 13.61829563 -11 13 C-13 11 -13 11 -13.375 8.0625 C-13 5 -13 5 -11.5 3.25 C-8.06869167 1.53434583 -3.87676587 0 0 0 Z " fill="#292C31" transform="translate(893,321)"/>
<path d="M0 0 C0.60552093 7.14514693 0.60552093 7.14514693 -2.125 11 C-5.4580898 13.31867116 -7.02524236 13.61829563 -11 13 C-13 11 -13 11 -13.375 8.0625 C-13 5 -13 5 -11.5 3.25 C-8.06869167 1.53434583 -3.87676587 0 0 0 Z " fill="#292C31" transform="translate(695,321)"/>
<path d="M0 0 C0.29363808 4.99184736 0.07836372 7.97444744 -3 12 C-5.76250036 13.38125018 -7.94731099 13.19079306 -11 13 C-13 11 -13 11 -13.375 8.0625 C-13 5 -13 5 -11.5 3.25 C-8.06869167 1.53434583 -3.87676587 0 0 0 Z " fill="#292B30" transform="translate(574,321)"/>
<path d="M0 0 C2.4375 1.125 2.4375 1.125 4 3 C4 4.98 4 6.96 4 9 C-1.28 9 -6.56 9 -12 9 C-10.46627792 1.33138961 -7.91411147 -0.98926393 0 0 Z " fill="#2F3237" transform="translate(1210,311)"/>
<path d="M0 0 C2.9375 2.25 2.9375 2.25 5 5 C5 6.32 5 7.64 5 9 C-0.28 9 -5.56 9 -11 9 C-11 4 -11 4 -9.4375 1.6875 C-6.03434143 -0.66853286 -4.05796087 -0.64073066 0 0 Z " fill="#2E3136" transform="translate(1422,311)"/>
<path d="M0 0 C2 3 2 3 2 8 C-3.28 8 -8.56 8 -14 8 C-13 2 -13 2 -11.5 0.0625 C-7.71039751 -1.54808106 -3.91824049 -1.19513899 0 0 Z " fill="#2E3035" transform="translate(393,312)"/>
<path d="M0 0 C2.9375 2.25 2.9375 2.25 5 5 C5 6.32 5 7.64 5 9 C-0.28 9 -5.56 9 -11 9 C-10 3 -10 3 -8.875 1.125 C-5.78370587 -0.72977648 -3.51564662 -0.48491678 0 0 Z " fill="#2D3035" transform="translate(1346,311)"/>
<path d="M0 0 C0.99 0 1.98 0 3 0 C3 1.32 3 2.64 3 4 C3.99 4 4.98 4 6 4 C5.84152588 4.55719727 5.68305176 5.11439453 5.51977539 5.68847656 C4.96429853 8.15877011 4.791532 10.45553604 4.68359375 12.984375 C4.64169922 13.91894531 4.59980469 14.85351562 4.55664062 15.81640625 C4.49766602 17.26853516 4.49766602 17.26853516 4.4375 18.75 C4.39431641 19.73355469 4.35113281 20.71710938 4.30664062 21.73046875 C4.20077948 24.15351275 4.09869829 26.5766554 4 29 C2.68 29 1.36 29 0 29 C0 19.43 0 9.86 0 0 Z " fill="#F9F9F9" transform="translate(1007,308)"/>
<path d="M0 0 C1.32 0 2.64 0 4 0 C4 9.57 4 19.14 4 29 C2.68 29 1.36 29 0 29 C0 19.43 0 9.86 0 0 Z " fill="#F7F7F7" transform="translate(732,308)"/>
<path d="M0 0 C1.65 0.33 3.3 0.66 5 1 C4.67 2.65 4.34 4.3 4 6 C2.35 5.67 0.7 5.34 -1 5 C-0.67 3.35 -0.34 1.7 0 0 Z " fill="#EAEBEB" transform="translate(732,296)"/>
</svg>
